<svg width="298" height="189" viewBox="0 0 298 189" fill="none" xmlns="http://www.w3.org/2000/svg">
<g clip-path="url(#clip0_1129_1687)">
<path d="M255.658 122.867L255.099 122.929L262.001 186.09L262.56 186.029L255.658 122.867Z" fill="#292A2E"/>
<path d="M273.535 150.441L270.139 184.079L270.699 184.135L274.094 150.497L273.535 150.441Z" fill="#292A2E"/>
<path d="M279.373 180.013H254.178V188.201H279.373V180.013Z" fill="#292A2E"/>
<path opacity="0.2" d="M279.373 180.013H254.178V188.201H279.373V180.013Z" fill="white"/>
<path d="M294.561 164.936C299.334 158.584 297.058 148.805 289.479 143.094C281.899 137.383 271.886 137.903 267.113 144.255C262.34 150.608 264.616 160.387 272.195 166.098C279.775 171.809 289.788 171.289 294.561 164.936Z" fill="#E0E0E0"/>
<path opacity="0.2" d="M294.561 164.936C299.334 158.584 297.058 148.805 289.479 143.094C281.899 137.383 271.886 137.903 267.113 144.255C262.34 150.608 264.616 160.387 272.195 166.098C279.775 171.809 289.788 171.289 294.561 164.936Z" fill="white"/>
<path opacity="0.5" d="M294.561 164.938C294.24 165.366 293.89 165.772 293.514 166.152C288.26 169.513 280.505 168.984 274.353 164.348C266.775 158.638 264.5 148.859 269.273 142.507C269.594 142.08 269.943 141.674 270.317 141.293C275.574 137.929 283.326 138.46 289.481 143.094C297.059 148.806 299.334 158.585 294.561 164.938Z" fill="white"/>
<path d="M259.402 140.837C266.91 135.033 268.951 125.079 263.96 118.604C258.969 112.129 248.836 111.585 241.327 117.389C233.818 123.193 231.778 133.147 236.769 139.622C241.76 146.097 251.893 146.641 259.402 140.837Z" fill="#E0E0E0"/>
<path opacity="0.2" d="M257.022 139.171C251.207 143.669 243.817 144.354 238.46 141.426C237.84 140.879 237.274 140.274 236.769 139.619C231.777 133.146 233.817 123.191 241.326 117.388C247.141 112.893 254.531 112.205 259.885 115.13C260.507 115.677 261.074 116.283 261.578 116.939C266.571 123.412 264.53 133.368 257.022 139.171Z" fill="white"/>
<path d="M247.263 14.583H57.5814C52.9234 14.583 49.1472 18.3644 49.1472 23.0291V162.101C49.1472 166.765 52.9234 170.547 57.5814 170.547H247.263C251.921 170.547 255.698 166.765 255.698 162.101V23.0291C255.698 18.3644 251.921 14.583 247.263 14.583Z" fill="white"/>
<path d="M247.263 170.828H57.5814C55.2708 170.825 53.0556 169.905 51.4217 168.269C49.7879 166.633 48.8688 164.414 48.8661 162.1V23.0291C48.8687 20.7152 49.7878 18.4968 51.4216 16.8607C53.0555 15.2245 55.2708 14.3041 57.5814 14.3015H247.263C249.573 14.304 251.789 15.2244 253.423 16.8606C255.057 18.4968 255.976 20.7152 255.978 23.0291V162.1C255.976 164.414 255.056 166.633 253.423 168.269C251.789 169.905 249.573 170.825 247.263 170.828ZM57.5814 14.8646C55.4198 14.867 53.3475 15.7279 51.819 17.2586C50.2905 18.7892 49.4308 20.8645 49.4284 23.0291V162.1C49.4308 164.265 50.2905 166.34 51.819 167.871C53.3475 169.402 55.4198 170.263 57.5814 170.265H247.263C249.424 170.263 251.497 169.402 253.025 167.871C254.554 166.34 255.413 164.265 255.416 162.1V23.0291C255.413 20.8645 254.554 18.7892 253.025 17.2586C251.497 15.7279 249.424 14.867 247.263 14.8646H57.5814Z" fill="#292A2E"/>
<path d="M86.0163 90.811C85.9056 90.8111 85.7959 90.7893 85.6935 90.7469C85.5912 90.7044 85.4983 90.6421 85.42 90.5635L81.4841 86.622C81.3304 86.4627 81.2454 86.2494 81.2473 86.0279C81.2493 85.8065 81.338 85.5947 81.4943 85.4381C81.6507 85.2815 81.8623 85.1926 82.0834 85.1907C82.3045 85.1888 82.5176 85.2739 82.6767 85.4278L86.6126 89.3693C86.7305 89.4874 86.8108 89.6379 86.8434 89.8017C86.8759 89.9655 86.8592 90.1353 86.7954 90.2896C86.7316 90.4439 86.6235 90.5758 86.4848 90.6686C86.3461 90.7614 86.1831 90.811 86.0163 90.811Z" fill="#455A64"/>
<path d="M82.0803 90.811C81.9135 90.811 81.7505 90.7614 81.6118 90.6686C81.4731 90.5758 81.3651 90.4439 81.3012 90.2896C81.2374 90.1353 81.2207 89.9655 81.2532 89.8017C81.2858 89.6379 81.3661 89.4874 81.484 89.3693L85.42 85.4278C85.579 85.2739 85.7921 85.1888 86.0132 85.1907C86.2344 85.1926 86.4459 85.2815 86.6023 85.4381C86.7586 85.5947 86.8474 85.8065 86.8493 86.0279C86.8512 86.2494 86.7662 86.4627 86.6125 86.622L82.6766 90.5635C82.5984 90.6421 82.5054 90.7044 82.4031 90.7469C82.3008 90.7894 82.1911 90.8112 82.0803 90.811Z" fill="#455A64"/>
<path d="M198.711 128.483L197.587 131.064L204.502 134.083L205.625 131.502L198.711 128.483Z" fill="#455A64"/>
<path d="M200.893 59.2932L194.39 63.1199L195.815 65.5472L202.318 61.7205L200.893 59.2932Z" fill="#455A64"/>
<path d="M92.528 65.8463L91.6571 68.5232L98.829 70.8633L99.6999 68.1864L92.528 65.8463Z" fill="#455A64"/>
<path d="M100.924 110.743L94.7465 115.071L96.3575 117.377L102.535 113.049L100.924 110.743Z" fill="#455A64"/>
<path d="M214.228 100.822L213.97 103.626L221.317 104.304L221.575 101.5L214.228 100.822Z" fill="#455A64"/>
<path d="M221.71 80.6562C221.599 80.6564 221.489 80.6346 221.387 80.5921C221.285 80.5497 221.192 80.4873 221.113 80.4088L217.177 76.4673C217.097 76.3893 217.033 76.2961 216.988 76.1931C216.944 76.0901 216.921 75.9792 216.92 75.8671C216.919 75.7549 216.94 75.6437 216.983 75.5399C217.025 75.4361 217.088 75.3418 217.167 75.2625C217.246 75.1832 217.34 75.1205 217.444 75.078C217.548 75.0356 217.659 75.0142 217.771 75.0152C217.883 75.0161 217.993 75.0394 218.096 75.0837C218.199 75.128 218.292 75.1923 218.37 75.273L222.306 79.2145C222.424 79.3326 222.504 79.4831 222.537 79.6469C222.569 79.8107 222.553 79.9805 222.489 80.1348C222.425 80.2891 222.317 80.421 222.178 80.5138C222.04 80.6066 221.876 80.6562 221.71 80.6562Z" fill="#455A64"/>
<path d="M217.774 80.6562C217.607 80.6562 217.444 80.6066 217.305 80.5138C217.167 80.421 217.059 80.2891 216.995 80.1348C216.931 79.9805 216.914 79.8107 216.947 79.6469C216.979 79.4831 217.06 79.3326 217.177 79.2145L221.113 75.273C221.191 75.1923 221.284 75.128 221.387 75.0837C221.49 75.0394 221.601 75.0161 221.713 75.0152C221.825 75.0142 221.936 75.0356 222.04 75.078C222.143 75.1205 222.237 75.1832 222.317 75.2625C222.396 75.3418 222.458 75.4361 222.501 75.5399C222.543 75.6437 222.564 75.7549 222.564 75.8671C222.563 75.9792 222.539 76.0901 222.495 76.1931C222.451 76.2961 222.387 76.3893 222.306 76.4673L218.37 80.4088C218.292 80.4873 218.199 80.5496 218.097 80.5921C217.994 80.6345 217.885 80.6564 217.774 80.6562Z" fill="#455A64"/>
<path opacity="0.88" d="M152.422 141.563C177.192 141.563 197.272 121.455 197.272 96.6497C197.272 71.8449 177.192 51.7366 152.422 51.7366C127.652 51.7366 107.572 71.8449 107.572 96.6497C107.572 121.455 127.652 141.563 152.422 141.563Z" fill="#455A64"/>
<path d="M152.422 128.06C169.745 128.06 183.788 113.997 183.788 96.6496C183.788 79.3023 169.745 65.2395 152.422 65.2395C135.099 65.2395 121.056 79.3023 121.056 96.6496C121.056 113.997 135.099 128.06 152.422 128.06Z" fill="#030404"/>
<path d="M146.009 110.125C145.762 110.125 145.519 110.075 145.292 109.978C145.066 109.882 144.861 109.74 144.691 109.562L134.707 99.1571C134.538 98.9844 134.404 98.7798 134.314 98.5552C134.225 98.3305 134.18 98.0902 134.183 97.8482C134.187 97.6062 134.238 97.3673 134.335 97.1453C134.431 96.9234 134.57 96.7227 134.745 96.555C134.919 96.3873 135.125 96.2559 135.35 96.1684C135.575 96.0808 135.816 96.039 136.057 96.0451C136.299 96.0513 136.537 96.1054 136.757 96.2043C136.978 96.3032 137.177 96.4449 137.342 96.6213L146.103 105.751L169.005 85.1766C169.184 85.0134 169.392 84.8872 169.62 84.8053C169.847 84.7234 170.088 84.6873 170.329 84.6993C170.57 84.7112 170.806 84.7709 171.024 84.8748C171.242 84.9788 171.438 85.125 171.599 85.3049C171.76 85.4849 171.884 85.6951 171.964 85.9233C172.043 86.1516 172.077 86.3934 172.063 86.6347C172.049 86.8761 171.987 87.1122 171.881 87.3295C171.775 87.5468 171.627 87.7409 171.446 87.9007L147.229 109.656C146.894 109.958 146.459 110.125 146.009 110.125Z" fill="white"/>
<path d="M255.697 23.0281V31.5268H49.1481V23.0281C49.1481 20.7881 50.0367 18.6398 51.6184 17.0558C53.2001 15.4719 55.3454 14.582 57.5823 14.582H247.263C249.5 14.582 251.645 15.4719 253.227 17.0558C254.808 18.6398 255.697 20.7881 255.697 23.0281Z" fill="#292A2E"/>
<path d="M10.5414 171.565C8.84293 171.565 7.16971 171.154 5.6641 170.367C4.15848 169.58 2.86505 168.44 1.89388 167.045C0.922702 165.649 0.302536 164.04 0.08616 162.353C-0.130216 160.666 0.0636027 158.951 0.651122 157.356C1.24742 155.735 16.5426 116.197 19.2064 109.326L37.6129 120.052C36.1158 123.916 30.6915 138.562 26.3338 150.36L33.5735 149.572L35.8521 168.874L11.6836 171.505C11.3042 171.546 10.9229 171.566 10.5414 171.565Z" fill="#37474F"/>
<path d="M23.1758 172.176L19.961 188.201H82.4019L78.8053 171.872L23.1758 172.176Z" fill="#262626"/>
<path d="M70.7461 101.104C70.6815 101.095 68.9103 107.77 55.0866 106.732C45.5166 106.014 43.1831 99.4905 42.9638 99.4905C43.9956 99.2709 45.6712 99.0428 46.1295 98.7979C47.6364 97.9871 48.734 97 49.2867 94.8817C49.7188 93.2252 49.9389 86.8481 49.9389 83.6484L64.6651 86.9621C64.4598 90.5714 63.0232 98.9386 68.0584 100.42C68.8962 100.664 69.7987 100.89 70.7461 101.104Z" fill="#E98862"/>
<path d="M64.1562 94.0577C58.3509 94.5166 50.8934 92.0619 49.4767 84.3056L48.1987 77.3072C46.782 69.5509 49.7019 62.5181 56.9947 61.1825C64.2872 59.8469 70.8867 65.1361 72.3031 72.8924L72.869 75.991C73.4116 78.9668 74.5134 93.2396 64.1562 94.0577Z" fill="#E98862"/>
<path d="M36.6764 100.564C31.4596 100.952 26.1401 101.517 22.3014 105.076C17.6784 109.362 16.8406 114.632 19.79 129.136C22.3276 141.615 21.3211 147.068 23.0186 170.095C23.0687 170.774 23.1758 172.176 23.1758 172.176L78.9821 172.084C78.9821 172.084 84.2113 141.532 87.0984 127.441C89.2938 116.729 95.0605 103.724 70.7461 101.103C70.682 101.096 51.1813 99.4864 36.6764 100.564Z" fill="#37474F"/>
<path d="M23.1758 172.317C23.1394 172.317 23.1045 172.303 23.0782 172.278C23.052 172.253 23.0366 172.218 23.0352 172.182L21.2862 126.721C21.2849 126.684 21.2984 126.647 21.3237 126.62C21.3491 126.593 21.3842 126.577 21.4215 126.575C21.4401 126.574 21.4588 126.576 21.4765 126.582C21.4942 126.588 21.5104 126.598 21.5241 126.611C21.5378 126.623 21.5487 126.639 21.5562 126.656C21.5636 126.673 21.5675 126.692 21.5674 126.71L23.3164 172.171C23.3177 172.209 23.3043 172.245 23.2789 172.272C23.2535 172.3 23.2184 172.316 23.1811 172.317L23.1758 172.317Z" fill="#0C0C0C"/>
<path d="M112.723 116.796L116.643 107.989C116.73 107.795 116.855 107.622 117.012 107.479C117.169 107.337 117.353 107.229 117.554 107.162C117.755 107.095 117.967 107.071 118.178 107.091C118.389 107.111 118.593 107.174 118.778 107.277C119.113 107.479 119.362 107.797 119.476 108.172C119.59 108.547 119.561 108.95 119.394 109.305L118.554 111.193L123.92 106.469C124.507 105.934 125.57 105.653 126.127 106.352C126.358 106.607 126.497 106.934 126.52 107.278C126.542 107.622 126.448 107.964 126.252 108.247C126.258 108.251 126.264 108.256 126.269 108.262C126.273 108.267 126.276 108.272 126.278 108.277L127.184 107.451C127.352 107.298 127.552 107.185 127.769 107.119C127.986 107.053 128.215 107.037 128.44 107.071C128.664 107.105 128.878 107.189 129.066 107.316C129.254 107.444 129.411 107.612 129.526 107.808C129.7 108.12 129.763 108.483 129.702 108.835C129.642 109.188 129.462 109.51 129.194 109.746L128.808 110.097C128.813 110.113 128.815 110.129 128.815 110.146C129.13 109.969 129.498 109.91 129.853 109.98C130.208 110.05 130.526 110.244 130.751 110.527C130.988 110.845 131.097 111.24 131.056 111.634C131.015 112.028 130.827 112.393 130.53 112.654L129.574 113.527C129.596 113.524 129.619 113.527 129.64 113.534C129.661 113.542 129.68 113.555 129.695 113.571C129.712 113.592 129.723 113.617 129.726 113.643C130.051 113.564 130.392 113.593 130.698 113.727C131.005 113.861 131.258 114.092 131.421 114.385C131.585 114.695 131.64 115.053 131.576 115.398C131.512 115.744 131.334 116.058 131.07 116.29L122.991 123.655C121.861 124.686 120.449 125.355 118.937 125.576C117.424 125.798 115.88 125.562 114.503 124.9C113.315 124.328 112.396 123.316 111.942 122.077C111.488 120.838 111.534 119.47 112.071 118.265L112.723 116.796Z" fill="#E98862"/>
<g opacity="0.2">
<path d="M120.963 112.948C120.988 112.975 121.023 112.991 121.06 112.993C121.097 112.995 121.133 112.982 121.16 112.958L126.258 108.459C126.271 108.447 126.283 108.432 126.291 108.416C126.299 108.399 126.304 108.381 126.305 108.362C126.306 108.344 126.303 108.326 126.297 108.308C126.291 108.291 126.282 108.274 126.27 108.261C126.258 108.247 126.243 108.235 126.226 108.227C126.21 108.219 126.192 108.214 126.173 108.213C126.155 108.212 126.136 108.215 126.119 108.221C126.101 108.227 126.085 108.236 126.071 108.248L120.975 112.747C120.961 112.759 120.949 112.774 120.941 112.79C120.933 112.807 120.928 112.825 120.927 112.843C120.926 112.862 120.929 112.88 120.935 112.898C120.941 112.915 120.95 112.931 120.962 112.945L120.963 112.948Z" fill="#0C0C0C"/>
</g>
<g opacity="0.2">
<path d="M122.883 115.254C122.908 115.281 122.942 115.297 122.979 115.299C123.016 115.301 123.052 115.288 123.08 115.264L128.768 110.243C128.782 110.231 128.793 110.216 128.801 110.2C128.81 110.183 128.814 110.165 128.815 110.147C128.817 110.128 128.814 110.11 128.808 110.092C128.802 110.075 128.793 110.058 128.78 110.045C128.755 110.018 128.721 110.001 128.684 109.999C128.647 109.997 128.61 110.009 128.582 110.032L122.893 115.053C122.88 115.065 122.868 115.08 122.86 115.096C122.852 115.113 122.847 115.131 122.846 115.149C122.845 115.168 122.847 115.186 122.853 115.204C122.859 115.221 122.869 115.237 122.881 115.251L122.883 115.254Z" fill="#0C0C0C"/>
</g>
<g opacity="0.2">
<path d="M124.947 117.763C124.972 117.79 125.007 117.807 125.043 117.809C125.08 117.811 125.116 117.798 125.144 117.773L129.682 113.769C129.71 113.744 129.727 113.709 129.729 113.672C129.731 113.635 129.719 113.598 129.694 113.57C129.669 113.542 129.635 113.525 129.597 113.522C129.56 113.52 129.523 113.533 129.495 113.557L124.958 117.562C124.944 117.575 124.933 117.589 124.925 117.606C124.916 117.623 124.912 117.641 124.911 117.659C124.909 117.678 124.912 117.696 124.918 117.714C124.924 117.731 124.933 117.747 124.945 117.761L124.947 117.763Z" fill="#0C0C0C"/>
</g>
<path d="M69.5383 86.9367C68.4964 81.6933 68.0185 78.1953 68.0739 74.5046C69.5417 71.9263 69.1557 68.9674 68.822 67.6886C70.2606 68.4747 70.8622 68.5614 72.2162 68.5614C72.2162 68.5614 69.7888 58.8059 61.5385 56.1809C60.0203 55.5896 56.1479 54.8427 51.0047 55.5491C46.6302 56.1499 35.8468 59.4253 34.305 71.5825V71.5896C34.2538 71.9927 33.2187 83.1936 31.1546 88.5679C28.3794 95.7927 24.4839 98.0373 24.5826 106.373C24.7097 117.095 44.3934 118.522 56.2671 117.719C68.1408 116.915 74.7661 113.007 74.8527 105.28C74.9483 96.6229 71.6233 97.427 69.5383 86.9367Z" fill="#0A0A0A"/>
<path d="M69.5417 82.5416C67.3255 82.9473 65.0952 80.902 64.6901 78.6829C64.285 76.4638 65.8577 74.9103 68.0739 74.5046L69.5417 82.5416Z" fill="#E98862"/>
<path d="M93.3787 169.967C91.1495 169.967 88.9777 169.259 87.175 167.946C85.3723 166.633 84.0315 164.781 83.3449 162.658L68.6974 117.293L88.7602 110.796L96.4634 134.658L109.776 113.457L127.626 124.696L102.301 165.029C101.352 166.541 100.036 167.786 98.4756 168.65C96.9152 169.513 95.1616 169.967 93.3787 169.967Z" fill="#37474F"/>
<path d="M81.5588 157.442C81.5501 157.442 81.5414 157.441 81.5329 157.44C81.4963 157.433 81.4638 157.412 81.4427 157.381C81.4217 157.35 81.4136 157.312 81.4205 157.276L86.3997 130.208C86.4065 130.172 86.4275 130.139 86.4582 130.118C86.4889 130.097 86.5268 130.089 86.5635 130.095C86.6002 130.102 86.6327 130.123 86.6539 130.154C86.675 130.185 86.6831 130.223 86.6764 130.259L81.6971 157.327C81.6911 157.359 81.674 157.388 81.6487 157.409C81.6235 157.43 81.5916 157.442 81.5588 157.442Z" fill="#0C0C0C"/>
<path d="M98.2554 141.047C98.2242 141.047 98.1939 141.037 98.1692 141.017C98.1446 140.998 98.1269 140.972 98.1191 140.941L96.4603 134.543C96.4557 134.525 96.4546 134.507 96.4572 134.488C96.4597 134.47 96.4659 134.453 96.4752 134.437C96.4846 134.421 96.497 134.407 96.5117 134.396C96.5265 134.384 96.5432 134.376 96.5611 134.372C96.579 134.367 96.5976 134.366 96.6159 134.369C96.6342 134.371 96.6518 134.377 96.6677 134.387C96.6836 134.396 96.6975 134.408 96.7086 134.423C96.7197 134.438 96.7278 134.455 96.7325 134.473L98.3912 140.871C98.4005 140.907 98.3951 140.945 98.3762 140.977C98.3573 141.01 98.3264 141.033 98.2903 141.042C98.2789 141.045 98.2672 141.047 98.2554 141.047Z" fill="#0C0C0C"/>
<path d="M6.40016 188.483H287.439C287.514 188.483 287.585 188.453 287.638 188.4C287.691 188.347 287.721 188.276 287.721 188.201C287.721 188.126 287.691 188.055 287.638 188.002C287.585 187.949 287.514 187.919 287.439 187.919H6.40016C6.32559 187.919 6.25409 187.949 6.20136 188.002C6.14864 188.055 6.11902 188.126 6.11902 188.201C6.11902 188.276 6.14864 188.347 6.20136 188.4C6.25409 188.453 6.32559 188.483 6.40016 188.483Z" fill="#292A2E"/>
<path d="M221.533 93.9683L275.327 93.9683C278.165 93.9683 280.466 91.6644 280.466 88.8224V53.5178C280.466 50.6758 278.165 48.3719 275.327 48.3719L221.533 48.3719C218.695 48.3719 216.394 50.6758 216.394 53.5178V88.8224C216.394 91.6644 218.695 93.9683 221.533 93.9683Z" fill="#292A2E"/>
<path d="M230.961 54.7239H224.244C223.083 54.7239 222.142 55.6665 222.142 56.8292V60.7468C222.142 61.9095 223.083 62.8521 224.244 62.8521H230.961C232.122 62.8521 233.064 61.9095 233.064 60.7468V56.8292C233.064 55.6665 232.122 54.7239 230.961 54.7239Z" fill="white"/>
<path d="M233.064 55.6254V57.5329H229.363L228.767 56.9363V54.7251H232.163C232.281 54.725 232.398 54.7483 232.508 54.7935C232.617 54.8387 232.716 54.905 232.8 54.9886C232.883 55.0722 232.95 55.1715 232.995 55.2807C233.04 55.39 233.063 55.5071 233.064 55.6254Z" fill="#767A79"/>
<path d="M233.064 60.043V61.9504C233.064 62.1894 232.969 62.4185 232.8 62.5875C232.631 62.7564 232.402 62.8514 232.164 62.8514H228.767V60.5802L229.363 60.0425L233.064 60.043Z" fill="#767A79"/>
<path d="M226.379 54.7239V56.9362L225.842 57.5339H222.142V55.6265C222.142 55.5082 222.165 55.391 222.21 55.2817C222.255 55.1724 222.322 55.0731 222.405 54.9894C222.489 54.9058 222.588 54.8394 222.697 54.7941C222.806 54.7489 222.923 54.7256 223.041 54.7256L226.379 54.7239Z" fill="#767A79"/>
<path d="M226.379 60.5806V62.8518H223.042C222.924 62.8518 222.807 62.8285 222.698 62.7832C222.589 62.7379 222.49 62.6716 222.406 62.5879C222.323 62.5042 222.256 62.4049 222.211 62.2956C222.166 62.1863 222.143 62.0692 222.143 61.9509V60.0435H225.843L226.379 60.5806Z" fill="#767A79"/>
<path d="M275.486 84.915C275.486 86.1831 274.983 87.3992 274.088 88.2959C273.193 89.1925 271.978 89.6963 270.712 89.6963C269.446 89.6963 268.231 89.1925 267.336 88.2959C266.44 87.3992 265.937 86.1831 265.937 84.915C265.938 84.2022 266.099 83.4988 266.409 82.8573C266.719 82.2157 267.17 81.6525 267.728 81.2097C268.425 80.6382 269.271 80.2773 270.166 80.1689C271.061 80.0606 271.968 80.2093 272.781 80.5978C273.595 80.9863 274.281 81.5984 274.76 82.3629C275.239 83.1273 275.492 84.0124 275.487 84.915H275.486Z" fill="white"/>
<path d="M265.937 88.6205C265.237 89.1921 264.39 89.5532 263.493 89.6618C262.597 89.7705 261.688 89.6222 260.872 89.2342C260.056 88.8462 259.367 88.2345 258.884 87.47C258.401 86.7055 258.145 85.8196 258.145 84.9151C258.145 84.0107 258.401 83.1248 258.884 82.3603C259.367 81.5958 260.056 80.984 260.872 80.596C261.688 80.2081 262.597 80.0598 263.493 80.1684C264.39 80.277 265.237 80.6381 265.937 81.2097C264.863 82.1061 264.383 83.4209 264.383 84.915C264.383 86.4091 264.862 87.7838 265.937 88.6205Z" fill="#767A79"/>
<path d="M232.541 69.4106H223.02C222.535 69.4106 222.142 69.8044 222.142 70.2902V70.2904C222.142 70.7762 222.535 71.17 223.02 71.17H232.541C233.026 71.17 233.419 70.7762 233.419 70.2904V70.2902C233.419 69.8044 233.026 69.4106 232.541 69.4106Z" fill="white"/>
<path d="M246.564 69.4106H237.043C236.557 69.4106 236.164 69.8044 236.164 70.2902V70.2904C236.164 70.7762 236.557 71.17 237.043 71.17H246.564C247.049 71.17 247.442 70.7762 247.442 70.2904V70.2902C247.442 69.8044 247.049 69.4106 246.564 69.4106Z" fill="white"/>
<path d="M260.586 69.4106H251.065C250.58 69.4106 250.186 69.8044 250.186 70.2902V70.2904C250.186 70.7762 250.58 71.17 251.065 71.17H260.586C261.071 71.17 261.464 70.7762 261.464 70.2904V70.2902C261.464 69.8044 261.071 69.4106 260.586 69.4106Z" fill="white"/>
<path d="M274.608 69.4106H265.087C264.602 69.4106 264.209 69.8044 264.209 70.2902V70.2904C264.209 70.7762 264.602 71.17 265.087 71.17H274.608C275.093 71.17 275.486 70.7762 275.486 70.2904V70.2902C275.486 69.8044 275.093 69.4106 274.608 69.4106Z" fill="white"/>
</g>
<defs>
<clipPath id="clip0_1129_1687">
<rect width="297.953" height="187.994" fill="white" transform="translate(0 0.488281)"/>
</clipPath>
</defs>
</svg>
