<svg width="324" height="327" viewBox="0 0 324 327" fill="none" xmlns="http://www.w3.org/2000/svg">
<path d="M62.5515 255.57C117.631 284.608 206.893 284.608 261.961 255.57C317.028 226.532 317.041 179.471 261.961 150.433C206.881 121.395 117.618 121.402 62.5515 150.433C7.48441 179.464 7.49089 226.539 62.5515 255.57Z" fill="#F5F5F5"/>
<path d="M46.2154 209.28H48.5352C49.5985 205.697 50.2955 202.013 50.6153 198.286C51.1207 191.387 47.8094 180.824 41.7441 177.286C35.6789 173.748 32.3935 178.123 34.4282 181.864C36.4629 185.605 43.3253 196.246 43.416 205.402L46.2154 209.28Z" fill="#121212"/>
<path d="M45.6581 209.28H46.3061C46.9392 204.761 46.9392 200.175 46.3061 195.657C45.2563 186.704 42.3403 182.544 39.6317 179.654C39.5724 179.59 39.4906 179.553 39.4043 179.551C39.318 179.548 39.2343 179.581 39.1716 179.641C39.1089 179.7 39.0723 179.783 39.0698 179.87C39.0674 179.957 39.0993 180.042 39.1586 180.105C41.796 182.911 44.6342 186.965 45.6386 195.729C46.2806 200.222 46.2871 204.785 45.6581 209.28Z" fill="white"/>
<path d="M46.4033 209.28C45.2109 203.603 39.7937 196.854 34.6809 195.69C28.7517 194.382 25.8681 197.541 26.717 200.268C27.5659 202.995 32.2509 204.264 36.7999 206.402C38.3316 207.118 39.7318 208.091 40.9406 209.28H46.4033Z" fill="#121212"/>
<path d="M44.2454 209.28H44.9388C42.431 202.917 36.7286 198.378 32.063 197.959C32.0208 197.955 31.9781 197.959 31.9374 197.971C31.8968 197.984 31.8591 198.004 31.8264 198.032C31.7938 198.059 31.767 198.093 31.7475 198.131C31.728 198.169 31.7163 198.211 31.7131 198.254C31.7077 198.296 31.7111 198.34 31.7231 198.381C31.735 198.423 31.7553 198.461 31.7827 198.494C31.8101 198.527 31.8439 198.554 31.8821 198.574C31.9203 198.593 31.962 198.604 32.0047 198.607C36.4111 199.006 41.796 203.27 44.2454 209.28Z" fill="white"/>
<path d="M255.584 149.445L260.438 152.016L260.846 148.948C258.442 142.108 260.418 134.351 263.017 131.12C265.615 127.89 265.116 125.516 264.177 124.456C263.237 123.397 259.673 122.592 256.148 126.752C252.623 130.911 251.813 135.96 252.402 141.055C252.778 144.24 254.437 147.51 255.584 149.445Z" fill="#121212"/>
<path opacity="0.2" d="M255.584 149.445L260.438 152.016L260.846 148.948C258.442 142.108 260.418 134.351 263.017 131.12C265.615 127.89 265.116 125.516 264.177 124.456C263.237 123.397 259.673 122.592 256.148 126.752C252.623 130.911 251.813 135.96 252.402 141.055C252.778 144.24 254.437 147.51 255.584 149.445Z" fill="black"/>
<path d="M257.586 150.505L258.545 151.015C258.536 150.997 258.525 150.979 258.513 150.963C257.139 149.315 255.364 141.244 256.109 136.516C257.029 130.676 259.997 126.863 262.537 125.248C262.568 125.228 262.595 125.203 262.616 125.173C262.638 125.143 262.653 125.109 262.66 125.073C262.668 125.037 262.669 124.999 262.662 124.963C262.655 124.927 262.642 124.892 262.621 124.862C262.58 124.799 262.517 124.755 262.444 124.739C262.372 124.724 262.296 124.737 262.233 124.777C259.641 126.457 256.504 130.401 255.552 136.431C254.865 140.832 256.239 147.804 257.586 150.505Z" fill="white"/>
<path d="M260.535 137.772C261.954 141.284 261.948 143.004 259.634 143.363C257.548 143.677 255.014 146.234 257.366 150.387L271.13 157.673C271.164 156.896 271.354 156.135 271.689 155.435C272.023 154.735 272.494 154.11 273.074 153.598C275.335 151.316 277.422 149.596 277.098 147.058C276.774 144.521 274.59 142.075 274.227 139.864C273.864 137.654 274.979 136.392 277.357 133.913C279.735 131.434 281.893 127.589 278.718 125.836C275.543 124.083 271.907 127.085 270.391 129.106C268.875 131.127 267.488 132.016 264.501 131.846C261.513 131.676 259.116 134.26 260.535 137.772Z" fill="#121212"/>
<path d="M264.429 154.128C264.365 143.35 272.017 130.728 276.275 128.177C276.338 128.137 276.383 128.074 276.401 128.001C276.419 127.928 276.409 127.851 276.372 127.785C276.333 127.722 276.272 127.677 276.2 127.659C276.129 127.64 276.054 127.65 275.99 127.687C271.674 130.303 263.956 142.932 263.872 153.847L264.429 154.128Z" fill="white"/>
<path d="M266.477 142.925C266.419 142.939 266.357 142.932 266.303 142.906C266.249 142.88 266.205 142.836 266.179 142.781C264.943 140.454 263.902 138.025 263.069 135.522C263.057 135.487 263.053 135.45 263.057 135.413C263.06 135.376 263.07 135.34 263.087 135.307C263.104 135.275 263.127 135.245 263.155 135.222C263.183 135.198 263.215 135.18 263.25 135.169C263.285 135.158 263.322 135.153 263.358 135.157C263.395 135.16 263.43 135.17 263.463 135.187C263.495 135.204 263.524 135.227 263.547 135.256C263.571 135.284 263.589 135.317 263.6 135.352C264.426 137.82 265.453 140.216 266.671 142.513C266.706 142.58 266.713 142.658 266.691 142.73C266.669 142.802 266.62 142.863 266.555 142.899L266.477 142.925Z" fill="white"/>
<path d="M264.637 149.53C264.584 149.54 264.529 149.535 264.479 149.516C264.428 149.496 264.384 149.463 264.352 149.419C264.309 149.357 264.292 149.28 264.306 149.205C264.319 149.13 264.361 149.064 264.423 149.02C267.213 147.049 270.599 146.123 273.994 146.404C274.068 146.414 274.135 146.453 274.18 146.512C274.226 146.572 274.246 146.647 274.237 146.722C274.227 146.796 274.189 146.864 274.13 146.91C274.071 146.956 273.996 146.976 273.923 146.967C270.672 146.717 267.434 147.596 264.747 149.459C264.715 149.49 264.678 149.514 264.637 149.53Z" fill="white"/>
<path d="M183.313 83.6925L167.521 74.4907L151.736 83.6925L167.521 92.8943L183.313 83.6925Z" fill="#F5F5F5"/>
<path d="M167.521 111.304L183.313 102.102V83.6924L167.521 92.8942V111.304Z" fill="#EBEBEB"/>
<path d="M170.567 105.196C170.483 105.197 170.4 105.177 170.327 105.137C170.226 105.063 170.146 104.964 170.093 104.849C170.041 104.735 170.019 104.609 170.029 104.483V102.521V102.377H170.126L171.642 101.481V103.659C171.64 103.94 171.571 104.215 171.442 104.463C171.312 104.712 171.125 104.925 170.897 105.085C170.799 105.152 170.685 105.19 170.567 105.196ZM170.275 102.665V104.47C170.264 104.554 170.275 104.639 170.305 104.718C170.336 104.797 170.385 104.867 170.45 104.921C170.502 104.945 170.56 104.954 170.617 104.947C170.674 104.94 170.728 104.918 170.774 104.882C170.968 104.745 171.128 104.565 171.24 104.355C171.353 104.145 171.415 103.911 171.422 103.672V103.515H170.858L170.748 102.75L170.275 102.665ZM171.053 103.267H171.402V101.926L170.495 102.456L170.942 102.541L171.053 103.267Z" fill="white"/>
<path d="M170.839 106.753C170.806 106.753 170.775 106.74 170.752 106.716C170.729 106.693 170.716 106.661 170.716 106.628V104.993C170.715 104.977 170.717 104.96 170.723 104.945C170.729 104.929 170.738 104.915 170.75 104.903C170.761 104.892 170.775 104.883 170.79 104.877C170.806 104.871 170.822 104.868 170.839 104.869C170.871 104.869 170.903 104.882 170.926 104.905C170.949 104.929 170.962 104.96 170.962 104.993V106.602C170.965 106.62 170.963 106.639 170.959 106.657C170.954 106.674 170.945 106.691 170.934 106.705C170.922 106.719 170.908 106.731 170.891 106.739C170.875 106.747 170.857 106.752 170.839 106.753Z" fill="white"/>
<path d="M170.132 107.165C170.111 107.164 170.09 107.158 170.071 107.147C170.053 107.135 170.038 107.119 170.029 107.099C170.02 107.086 170.014 107.071 170.011 107.055C170.009 107.039 170.009 107.022 170.014 107.007C170.018 106.991 170.026 106.977 170.036 106.965C170.047 106.952 170.06 106.942 170.074 106.936L171.48 106.112C171.494 106.103 171.51 106.098 171.526 106.096C171.542 106.094 171.558 106.095 171.574 106.099C171.59 106.103 171.604 106.111 171.617 106.121C171.63 106.131 171.641 106.143 171.649 106.157C171.663 106.186 171.667 106.22 171.659 106.251C171.65 106.283 171.631 106.31 171.603 106.327L170.191 107.145L170.132 107.165Z" fill="white"/>
<path d="M175.161 104.339C175.117 104.353 175.069 104.353 175.025 104.339C174.977 104.307 174.939 104.263 174.914 104.211C174.889 104.16 174.878 104.102 174.882 104.045V103.711C174.881 103.695 174.884 103.679 174.889 103.664C174.895 103.649 174.903 103.636 174.914 103.624C174.925 103.612 174.938 103.603 174.953 103.597C174.967 103.59 174.983 103.587 174.999 103.587C175.015 103.586 175.032 103.589 175.047 103.595C175.062 103.601 175.076 103.61 175.088 103.621C175.1 103.633 175.109 103.647 175.115 103.663C175.12 103.678 175.123 103.695 175.122 103.711V103.986C175.122 104.038 175.122 104.065 175.122 104.065C175.122 104.065 175.161 104.065 175.2 104.065C175.275 103.995 175.335 103.91 175.374 103.815C175.413 103.72 175.431 103.618 175.427 103.515V101.37C175.427 101.354 175.43 101.338 175.436 101.323C175.442 101.309 175.451 101.295 175.463 101.284C175.474 101.273 175.488 101.265 175.503 101.259C175.518 101.254 175.534 101.251 175.55 101.252C175.581 101.252 175.61 101.265 175.632 101.287C175.654 101.309 175.666 101.339 175.666 101.37V103.554C175.671 103.7 175.643 103.845 175.583 103.978C175.524 104.11 175.434 104.227 175.323 104.32C175.271 104.336 175.216 104.343 175.161 104.339Z" fill="white"/>
<path d="M173.878 102.436V102.227C173.908 101.682 174.064 101.152 174.335 100.68C174.605 100.207 174.981 99.8052 175.433 99.5061C175.595 99.3688 175.794 99.285 176.005 99.2661C176.216 99.2471 176.427 99.2941 176.61 99.4005C176.793 99.5069 176.94 99.6676 177.029 99.8608C177.119 100.054 177.148 100.27 177.111 100.481V100.553L173.878 102.436ZM176.159 99.5323C175.945 99.5391 175.736 99.6047 175.556 99.722C175.171 99.9782 174.845 100.314 174.599 100.708C174.353 101.101 174.194 101.544 174.131 102.004L176.865 100.415C176.875 100.261 176.846 100.106 176.781 99.9667C176.715 99.827 176.614 99.7067 176.489 99.6173C176.389 99.5597 176.274 99.5304 176.159 99.5323Z" fill="white"/>
<path d="M179.496 101.828C179.464 101.828 179.434 101.816 179.411 101.794C179.388 101.772 179.375 101.742 179.373 101.71V97.5376C179.373 97.5046 179.386 97.473 179.409 97.4497C179.432 97.4264 179.463 97.4133 179.496 97.4133C179.529 97.4133 179.56 97.4264 179.583 97.4497C179.606 97.473 179.619 97.5046 179.619 97.5376V101.71C179.617 101.742 179.604 101.772 179.581 101.794C179.558 101.816 179.528 101.828 179.496 101.828Z" fill="white"/>
<path d="M179.165 98.4858H179.12C179.105 98.4794 179.092 98.4701 179.08 98.4584C179.069 98.4467 179.06 98.4329 179.054 98.4177C179.048 98.4025 179.045 98.3862 179.045 98.3699C179.046 98.3535 179.049 98.3374 179.055 98.3223L179.489 97.3152L179.969 97.8776C179.979 97.8897 179.987 97.9036 179.992 97.9186C179.997 97.9337 179.999 97.9496 179.997 97.9654C179.996 97.9811 179.992 97.9965 179.985 98.0107C179.978 98.0248 179.968 98.0374 179.956 98.0477C179.944 98.058 179.93 98.0658 179.915 98.0707C179.901 98.0756 179.885 98.0776 179.869 98.0763C179.853 98.0751 179.838 98.0708 179.824 98.0637C179.81 98.0565 179.798 98.0466 179.788 98.0346L179.554 97.773L179.276 98.427C179.265 98.4463 179.249 98.4621 179.229 98.4725C179.21 98.4829 179.187 98.4876 179.165 98.4858Z" fill="white"/>
<path d="M180.643 101.187C180.611 101.185 180.582 101.171 180.56 101.148C180.538 101.125 180.526 101.094 180.526 101.063V96.8901C180.522 96.8719 180.522 96.8529 180.526 96.8347C180.53 96.8164 180.538 96.7993 180.55 96.7846C180.561 96.7699 180.576 96.7581 180.593 96.7499C180.609 96.7418 180.628 96.7375 180.646 96.7375C180.665 96.7375 180.683 96.7418 180.7 96.7499C180.716 96.7581 180.731 96.7699 180.743 96.7846C180.754 96.7993 180.762 96.8164 180.766 96.8347C180.77 96.8529 180.77 96.8719 180.766 96.8901V101.063C180.766 101.096 180.753 101.127 180.73 101.151C180.707 101.174 180.676 101.187 180.643 101.187Z" fill="white"/>
<path d="M180.287 97.8384H180.241C180.226 97.832 180.213 97.8226 180.201 97.8109C180.19 97.7993 180.181 97.7854 180.175 97.7702C180.169 97.755 180.166 97.7388 180.166 97.7224C180.167 97.7061 180.17 97.6899 180.176 97.6749L180.611 96.6677L181.09 97.2302C181.111 97.2532 181.123 97.2836 181.123 97.3152C181.123 97.3468 181.111 97.3772 181.09 97.4002C181.066 97.4223 181.035 97.4345 181.003 97.4345C180.97 97.4345 180.939 97.4223 180.915 97.4002L180.688 97.1321L180.41 97.7861C180.396 97.8058 180.378 97.8213 180.356 97.8305C180.334 97.8398 180.31 97.8426 180.287 97.8384Z" fill="white"/>
<path d="M167.521 111.304L151.729 102.102L151.736 83.6924L167.521 92.8942V111.304Z" fill="#E0E0E0"/>
<path d="M160.484 88.7936L176.262 79.5853L174.48 78.5454L158.695 87.7537L160.484 88.7936Z" fill="white"/>
<path d="M154.127 94.248L159.784 97.518C160.109 97.7343 160.38 98.0243 160.575 98.365C160.769 98.7056 160.882 99.0874 160.905 99.48V102.998C160.905 103.724 160.399 104.019 159.784 103.652L154.127 100.382C153.801 100.167 153.53 99.8766 153.335 99.5359C153.141 99.1952 153.028 98.8132 153.006 98.4205V94.902C153.006 94.176 153.511 93.8883 154.127 94.248Z" fill="#121212"/>
<path d="M153.693 95.1243L153.906 95.2551V99.1594L153.693 99.0352V95.1243Z" fill="#121212"/>
<path d="M154.567 95.6345L154.937 95.8569V99.7613L154.567 99.5454V95.6345Z" fill="#121212"/>
<path d="M155.442 96.1445L155.656 96.2688V100.18L155.442 100.055V96.1445Z" fill="#121212"/>
<path d="M156.097 96.5239L156.531 96.779V100.69L156.097 100.428V96.5239Z" fill="#121212"/>
<path d="M157.185 97.1648L157.406 97.289V101.2L157.185 101.069V97.1648Z" fill="#121212"/>
<path d="M157.82 97.5247L158.274 97.7993V101.704L157.814 101.429L157.82 97.5247Z" fill="#121212"/>
<path d="M158.935 98.1851L159.149 98.3093V102.214L158.935 102.089V98.1851Z" fill="#121212"/>
<path d="M159.434 98.4663L159.544 98.5317V102.436L159.434 102.377V98.4663Z" fill="#121212"/>
<path d="M158.54 97.9692L158.643 98.0346V101.939L158.54 101.88V97.9692Z" fill="#121212"/>
<path d="M156.777 96.9294L156.881 96.9883V100.899L156.777 100.834V96.9294Z" fill="#121212"/>
<path d="M155.812 96.3669L155.922 96.4323V100.343L155.812 100.278V96.3669Z" fill="#121212"/>
<path d="M155.118 95.9812L155.228 96.0466V99.9575L155.118 99.8921V95.9812Z" fill="#121212"/>
<path d="M154.179 95.4055L154.289 95.4709V99.3818L154.179 99.3164V95.4055Z" fill="#121212"/>
<path d="M159.81 98.6887L160.024 98.813V102.724L159.81 102.6V98.6887Z" fill="#121212"/>
<path d="M162.259 80.6252L143.83 69.8931L125.407 80.6252L143.83 91.3639L162.259 80.6252Z" fill="#F5F5F5"/>
<path d="M135.931 86.7598L154.36 76.0277L152.572 74.9878L134.149 85.7199L135.931 86.7598Z" fill="white"/>
<path d="M143.83 125.104L162.259 114.372V80.6252L143.83 91.3639V125.104Z" fill="#EBEBEB"/>
<path d="M146.876 119.028C146.791 119.03 146.708 119.007 146.636 118.963C146.534 118.89 146.452 118.791 146.4 118.676C146.348 118.561 146.326 118.435 146.338 118.309V116.347V116.203H146.442L147.951 115.307V117.485C147.948 117.765 147.879 118.04 147.749 118.288C147.62 118.536 147.434 118.75 147.206 118.91C147.109 118.98 146.994 119.02 146.876 119.028ZM146.584 116.497V118.302C146.573 118.386 146.584 118.472 146.614 118.55C146.645 118.629 146.695 118.699 146.759 118.753C146.811 118.777 146.869 118.786 146.926 118.779C146.983 118.772 147.038 118.75 147.083 118.714C147.277 118.578 147.437 118.397 147.549 118.187C147.662 117.977 147.724 117.743 147.731 117.504V117.347H147.167L147.057 116.582L146.584 116.497ZM147.362 117.099H147.744V115.758L146.837 116.294L147.284 116.373L147.362 117.099Z" fill="white"/>
<path d="M147.148 120.558C147.115 120.558 147.084 120.545 147.061 120.522C147.038 120.499 147.025 120.467 147.025 120.434V118.793C147.025 118.777 147.028 118.761 147.034 118.746C147.04 118.731 147.05 118.718 147.061 118.707C147.073 118.696 147.086 118.688 147.101 118.682C147.116 118.676 147.132 118.674 147.148 118.675C147.179 118.675 147.21 118.687 147.233 118.709C147.256 118.731 147.269 118.761 147.271 118.793V120.434C147.269 120.467 147.256 120.497 147.233 120.52C147.21 120.543 147.18 120.557 147.148 120.558Z" fill="white"/>
<path d="M146.448 120.99C146.427 120.991 146.406 120.985 146.388 120.975C146.37 120.965 146.355 120.95 146.344 120.931C146.329 120.902 146.326 120.869 146.334 120.837C146.343 120.806 146.362 120.779 146.39 120.761L147.796 119.944C147.81 119.936 147.825 119.93 147.841 119.928C147.857 119.926 147.874 119.927 147.889 119.931C147.905 119.936 147.92 119.943 147.933 119.953C147.945 119.963 147.956 119.975 147.964 119.989C147.972 120.003 147.977 120.018 147.979 120.034C147.981 120.05 147.98 120.066 147.976 120.081C147.972 120.096 147.965 120.111 147.955 120.123C147.945 120.135 147.933 120.145 147.919 120.153L146.506 120.977C146.489 120.987 146.468 120.992 146.448 120.99Z" fill="white"/>
<path d="M151.47 118.145C151.423 118.145 151.376 118.134 151.334 118.112C151.287 118.08 151.248 118.036 151.223 117.985C151.198 117.933 151.187 117.875 151.191 117.818V117.478C151.191 117.462 151.195 117.446 151.201 117.431C151.207 117.417 151.216 117.403 151.228 117.392C151.239 117.381 151.253 117.373 151.268 117.367C151.283 117.362 151.299 117.359 151.314 117.36C151.33 117.36 151.345 117.363 151.359 117.369C151.373 117.375 151.386 117.384 151.397 117.395C151.408 117.406 151.416 117.419 151.422 117.433C151.428 117.447 151.431 117.463 151.431 117.478V117.818C151.431 117.864 151.431 117.89 151.431 117.897C151.431 117.903 151.47 117.897 151.509 117.897C151.584 117.826 151.644 117.74 151.683 117.644C151.722 117.548 151.74 117.444 151.736 117.341V115.163C151.736 115.13 151.749 115.098 151.772 115.075C151.795 115.052 151.826 115.039 151.859 115.039C151.891 115.04 151.921 115.054 151.944 115.077C151.967 115.1 151.98 115.13 151.982 115.163V117.341C151.988 117.487 151.959 117.633 151.899 117.766C151.838 117.899 151.746 118.016 151.632 118.106C151.582 118.131 151.526 118.145 151.47 118.145Z" fill="white"/>
<path d="M150.187 116.242V116.026C150.218 115.482 150.374 114.954 150.644 114.482C150.915 114.011 151.291 113.61 151.742 113.312C151.904 113.175 152.104 113.091 152.314 113.072C152.525 113.053 152.736 113.1 152.919 113.206C153.103 113.313 153.249 113.473 153.339 113.667C153.428 113.86 153.457 114.076 153.42 114.287V114.358L150.187 116.242ZM152.468 113.332C152.254 113.342 152.047 113.407 151.865 113.521C151.48 113.778 151.153 114.115 150.907 114.51C150.661 114.905 150.502 115.348 150.44 115.81L153.174 114.221C153.184 114.066 153.154 113.911 153.089 113.77C153.023 113.63 152.923 113.508 152.798 113.417C152.697 113.361 152.583 113.332 152.468 113.332Z" fill="white"/>
<path d="M155.831 115.634C155.798 115.634 155.767 115.621 155.744 115.598C155.721 115.574 155.708 115.543 155.708 115.51V111.337C155.708 111.304 155.721 111.273 155.744 111.249C155.767 111.226 155.798 111.213 155.831 111.213C155.864 111.213 155.895 111.226 155.918 111.249C155.941 111.273 155.954 111.304 155.954 111.337V115.51C155.954 115.543 155.941 115.574 155.918 115.598C155.895 115.621 155.864 115.634 155.831 115.634Z" fill="white"/>
<path d="M155.475 112.292H155.429C155.415 112.286 155.401 112.277 155.39 112.266C155.379 112.255 155.37 112.242 155.364 112.227C155.358 112.213 155.355 112.197 155.355 112.181C155.355 112.165 155.358 112.149 155.364 112.135L155.799 111.128L156.278 111.69C156.299 111.714 156.309 111.746 156.307 111.778C156.304 111.81 156.289 111.839 156.265 111.86C156.241 111.881 156.21 111.891 156.178 111.889C156.147 111.886 156.117 111.871 156.097 111.847L155.863 111.579L155.585 112.233C155.574 112.252 155.558 112.268 155.538 112.278C155.519 112.289 155.497 112.294 155.475 112.292Z" fill="white"/>
<path d="M156.952 114.986C156.921 114.986 156.891 114.974 156.87 114.952C156.848 114.93 156.835 114.9 156.835 114.869V110.696C156.835 110.68 156.837 110.664 156.842 110.649C156.848 110.634 156.856 110.62 156.867 110.609C156.878 110.597 156.891 110.588 156.906 110.582C156.92 110.575 156.936 110.572 156.952 110.572C156.968 110.571 156.985 110.574 157 110.579C157.016 110.585 157.03 110.595 157.041 110.606C157.053 110.618 157.062 110.632 157.068 110.648C157.074 110.663 157.076 110.68 157.075 110.696V114.869C157.075 114.885 157.072 114.901 157.066 114.915C157.059 114.93 157.05 114.943 157.039 114.954C157.027 114.965 157.014 114.974 156.999 114.979C156.984 114.985 156.968 114.987 156.952 114.986Z" fill="white"/>
<path d="M156.602 111.645H156.55C156.521 111.63 156.499 111.606 156.487 111.575C156.475 111.545 156.474 111.512 156.486 111.481L156.92 110.474L157.406 111.036C157.426 111.06 157.437 111.09 157.437 111.121C157.437 111.153 157.426 111.183 157.406 111.206C157.394 111.218 157.381 111.227 157.366 111.234C157.351 111.24 157.334 111.243 157.318 111.243C157.302 111.243 157.286 111.24 157.271 111.234C157.256 111.227 157.242 111.218 157.231 111.206L157.004 110.938L156.725 111.592C156.713 111.613 156.694 111.629 156.672 111.638C156.65 111.647 156.626 111.65 156.602 111.645Z" fill="white"/>
<path d="M143.83 125.104L125.407 114.372V80.6252L143.83 91.3639V125.104Z" fill="#E0E0E0"/>
<path d="M129.153 107.354L134.803 110.624C135.13 110.839 135.403 111.129 135.598 111.47C135.794 111.811 135.908 112.193 135.931 112.586V116.111C135.931 116.831 135.425 117.125 134.803 116.765L129.153 113.495C128.826 113.28 128.554 112.991 128.359 112.65C128.165 112.309 128.052 111.926 128.032 111.533V108.015C128.032 107.256 128.537 106.994 129.153 107.354Z" fill="#F5F5F5"/>
<path d="M128.719 108.23L128.933 108.361V112.266L128.719 112.141V108.23Z" fill="#E0E0E0"/>
<path d="M129.594 108.741L129.963 108.963V112.874L129.594 112.652V108.741Z" fill="#E0E0E0"/>
<path d="M130.462 109.251L130.682 109.375L130.676 113.286L130.462 113.162V109.251Z" fill="#E0E0E0"/>
<path d="M131.123 109.63L131.55 109.885V113.796L131.123 113.535V109.63Z" fill="#E0E0E0"/>
<path d="M132.211 110.271L132.425 110.395V114.306L132.211 114.175V110.271Z" fill="#E0E0E0"/>
<path d="M132.84 110.631L133.3 110.905V114.81L132.84 114.535V110.631Z" fill="#E0E0E0"/>
<path d="M133.961 111.285L134.175 111.415V115.32L133.961 115.196V111.285Z" fill="#E0E0E0"/>
<path d="M134.46 111.573L134.57 111.638V115.549L134.46 115.483V111.573Z" fill="#E0E0E0"/>
<path d="M133.566 111.075L133.669 111.141V115.045L133.566 114.986V111.075Z" fill="#E0E0E0"/>
<path d="M131.803 110.036L131.907 110.095V114.005L131.803 113.94V110.036Z" fill="#E0E0E0"/>
<path d="M130.838 109.473L130.941 109.539V113.449L130.838 113.384V109.473Z" fill="#E0E0E0"/>
<path d="M130.144 109.087L130.254 109.153V113.064L130.144 112.998V109.087Z" fill="#E0E0E0"/>
<path d="M129.205 108.512L129.315 108.577V112.488L129.205 112.423V108.512Z" fill="#E0E0E0"/>
<path d="M134.836 111.795L135.05 111.919V115.83L134.836 115.706V111.795Z" fill="#E0E0E0"/>
<path d="M134.149 90.0756L135.931 91.1155V86.7598L134.149 85.72V90.0756Z" fill="#F0F0F0"/>
<path d="M106.978 115.902L93.8174 108.237L75.3948 118.969L88.5557 126.641L106.978 115.902Z" fill="#F5F5F5"/>
<path d="M88.5557 157.313L106.978 146.581V115.902L88.5557 126.641V157.313Z" fill="#EBEBEB"/>
<path d="M91.5948 151.212C91.5124 151.213 91.4313 151.19 91.3615 151.146C91.2598 151.073 91.1788 150.974 91.1265 150.859C91.0742 150.744 91.0525 150.618 91.0634 150.492V148.53V148.386H91.1606L92.6769 147.49V149.668C92.6738 149.948 92.6045 150.224 92.4749 150.472C92.3454 150.72 92.1592 150.933 91.9317 151.094C91.8317 151.162 91.7154 151.203 91.5948 151.212ZM91.3097 148.681V150.486C91.2976 150.57 91.3074 150.655 91.3381 150.735C91.3687 150.814 91.4192 150.883 91.4846 150.937C91.5376 150.958 91.595 150.965 91.6515 150.959C91.7081 150.952 91.7621 150.931 91.8086 150.898C92.0027 150.761 92.1624 150.58 92.2749 150.37C92.3874 150.16 92.4496 149.926 92.4566 149.688V149.531H91.8929L91.7827 148.766L91.3097 148.681ZM92.0873 149.282H92.4372V147.935L91.53 148.471L91.9771 148.55L92.0873 149.282Z" fill="white"/>
<path d="M91.8734 152.768C91.8408 152.768 91.8095 152.755 91.7864 152.732C91.7633 152.708 91.7503 152.677 91.7503 152.644V151.002C91.7503 150.986 91.7535 150.97 91.7598 150.956C91.766 150.941 91.7752 150.928 91.7867 150.917C91.7983 150.906 91.8119 150.897 91.8268 150.891C91.8417 150.886 91.8576 150.884 91.8734 150.884C91.9044 150.884 91.934 150.897 91.9559 150.919C91.9778 150.941 91.9901 150.971 91.9901 151.002V152.644C91.9901 152.676 91.978 152.706 91.9563 152.729C91.9346 152.752 91.9049 152.766 91.8734 152.768Z" fill="white"/>
<path d="M91.1671 153.173C91.146 153.175 91.1251 153.17 91.1067 153.159C91.0883 153.149 91.0733 153.133 91.0634 153.115C91.0541 153.101 91.0477 153.086 91.0446 153.07C91.0415 153.053 91.0418 153.037 91.0455 153.021C91.0492 153.005 91.0561 152.99 91.0659 152.977C91.0757 152.963 91.0881 152.953 91.1023 152.945L92.5149 152.127C92.529 152.119 92.5445 152.114 92.5605 152.111C92.5766 152.109 92.5929 152.11 92.6086 152.115C92.6242 152.119 92.6389 152.126 92.6517 152.136C92.6646 152.146 92.6754 152.159 92.6834 152.173C92.6914 152.186 92.6965 152.202 92.6986 152.217C92.7006 152.233 92.6995 152.249 92.6952 152.264C92.691 152.28 92.6838 152.294 92.6739 152.306C92.6641 152.319 92.6519 152.329 92.6381 152.336L91.2254 153.16C91.2078 153.171 91.1874 153.175 91.1671 153.173Z" fill="white"/>
<path d="M96.1956 150.355C96.1483 150.355 96.1017 150.344 96.0595 150.322C96.0122 150.29 95.9741 150.246 95.9491 150.194C95.9241 150.143 95.913 150.085 95.917 150.028V149.688C95.917 149.656 95.9292 149.627 95.9511 149.604C95.973 149.582 96.0027 149.57 96.0336 149.57C96.0494 149.569 96.0653 149.571 96.0802 149.577C96.0951 149.583 96.1088 149.591 96.1203 149.602C96.1318 149.613 96.141 149.626 96.1473 149.641C96.1535 149.656 96.1567 149.672 96.1567 149.688V150.028C96.1567 150.074 96.1567 150.1 96.1567 150.106C96.1567 150.113 96.1956 150.106 96.2345 150.106C96.3088 150.035 96.3673 149.948 96.4064 149.853C96.4455 149.757 96.4642 149.654 96.4613 149.55V147.373C96.457 147.354 96.457 147.335 96.461 147.317C96.4651 147.299 96.4732 147.282 96.4847 147.267C96.4962 147.252 96.5109 147.24 96.5276 147.232C96.5443 147.224 96.5626 147.22 96.5812 147.22C96.5997 147.22 96.618 147.224 96.6347 147.232C96.6514 147.24 96.6661 147.252 96.6776 147.267C96.6892 147.282 96.6972 147.299 96.7013 147.317C96.7054 147.335 96.7053 147.354 96.701 147.373V149.55C96.7064 149.696 96.6781 149.841 96.6185 149.974C96.5589 150.107 96.4696 150.224 96.3576 150.316C96.3073 150.341 96.2519 150.354 96.1956 150.355Z" fill="white"/>
<path d="M94.9125 148.458V148.242C94.9432 147.699 95.0999 147.17 95.3701 146.698C95.6402 146.227 96.0161 145.826 96.4677 145.528C96.6287 145.389 96.8283 145.304 97.0392 145.285C97.25 145.265 97.4617 145.312 97.645 145.419C97.8284 145.526 97.9744 145.687 98.063 145.881C98.1515 146.075 98.1783 146.293 98.1396 146.503V146.575L94.9125 148.458ZM97.1935 145.548C96.9798 145.558 96.7722 145.623 96.5909 145.737C96.2053 145.994 95.8786 146.331 95.6327 146.726C95.3868 147.121 95.2274 147.564 95.1653 148.026L97.8998 146.431C97.9089 146.276 97.8793 146.122 97.8136 145.983C97.7478 145.843 97.6482 145.723 97.524 145.633C97.4251 145.576 97.3138 145.544 97.2 145.541L97.1935 145.548Z" fill="white"/>
<path d="M100.557 147.843C100.524 147.843 100.493 147.83 100.47 147.807C100.446 147.784 100.434 147.752 100.434 147.719V143.547C100.434 143.514 100.446 143.482 100.47 143.459C100.493 143.435 100.524 143.422 100.557 143.422C100.589 143.422 100.621 143.435 100.644 143.459C100.667 143.482 100.68 143.514 100.68 143.547V147.719C100.68 147.752 100.667 147.784 100.644 147.807C100.621 147.83 100.589 147.843 100.557 147.843Z" fill="white"/>
<path d="M100.2 144.534H100.155C100.14 144.528 100.127 144.52 100.116 144.509C100.104 144.497 100.095 144.484 100.089 144.469C100.083 144.455 100.08 144.439 100.08 144.423C100.08 144.407 100.084 144.392 100.09 144.377L100.524 143.37L101.004 143.932C101.024 143.957 101.035 143.988 101.032 144.02C101.03 144.052 101.015 144.082 100.991 144.102C100.979 144.113 100.965 144.12 100.95 144.125C100.935 144.13 100.919 144.132 100.904 144.131C100.872 144.129 100.843 144.114 100.822 144.089L100.589 143.821L100.31 144.475C100.299 144.494 100.283 144.51 100.264 144.521C100.244 144.531 100.222 144.536 100.2 144.534Z" fill="white"/>
<path d="M101.678 147.196C101.646 147.196 101.616 147.184 101.593 147.162C101.57 147.14 101.556 147.11 101.555 147.078V142.906C101.555 142.873 101.568 142.841 101.591 142.818C101.614 142.795 101.645 142.781 101.678 142.781C101.694 142.78 101.71 142.783 101.726 142.789C101.741 142.795 101.755 142.804 101.767 142.816C101.778 142.827 101.787 142.842 101.793 142.857C101.799 142.873 101.802 142.889 101.801 142.906V147.078C101.801 147.094 101.798 147.11 101.791 147.125C101.785 147.14 101.776 147.153 101.764 147.164C101.753 147.175 101.739 147.183 101.724 147.189C101.709 147.194 101.694 147.197 101.678 147.196Z" fill="white"/>
<path d="M101.321 143.88C101.307 143.886 101.291 143.886 101.276 143.88C101.261 143.874 101.248 143.866 101.237 143.855C101.225 143.844 101.216 143.83 101.21 143.816C101.204 143.801 101.201 143.785 101.201 143.769C101.201 143.753 101.205 143.738 101.211 143.723L101.645 142.716L102.125 143.279C102.146 143.302 102.158 143.332 102.158 143.364C102.158 143.395 102.146 143.426 102.125 143.449C102.113 143.46 102.1 143.469 102.085 143.476C102.07 143.482 102.054 143.485 102.037 143.485C102.021 143.485 102.005 143.482 101.99 143.476C101.975 143.469 101.961 143.46 101.95 143.449L101.723 143.18L101.444 143.834C101.43 143.853 101.411 143.867 101.389 143.875C101.368 143.883 101.344 143.885 101.321 143.88Z" fill="white"/>
<path d="M88.5557 157.313L75.3948 149.648V118.969L88.5557 126.641V157.313Z" fill="#E0E0E0"/>
<path d="M81.5054 126.889L83.2874 127.929V123.573L81.5054 122.533V126.889Z" fill="#F5F5F5"/>
<path d="M83.2874 123.573L101.717 112.835L99.9281 111.795L81.5054 122.534L83.2874 123.573Z" fill="white"/>
<path d="M83.2874 141.977L59.603 128.177L35.9121 141.977L59.603 155.783L83.2874 141.977Z" fill="#F5F5F5"/>
<path d="M59.603 174.187L83.2874 160.387V141.977L59.603 155.783V174.187Z" fill="#EBEBEB"/>
<path d="M62.6421 168.078C62.5602 168.077 62.4799 168.054 62.4089 168.013C62.3076 167.939 62.2269 167.84 62.1747 167.725C62.1225 167.611 62.1005 167.484 62.1108 167.359V165.397V165.253H62.208L63.7243 164.35V166.535C63.7201 166.814 63.6504 167.088 63.5208 167.335C63.3913 167.581 63.2056 167.794 62.9791 167.954C62.8794 168.024 62.7632 168.067 62.6421 168.078ZM62.3505 165.547V167.352C62.339 167.435 62.3491 167.52 62.3798 167.598C62.4104 167.676 62.4606 167.744 62.5255 167.797C62.5785 167.821 62.6371 167.831 62.6951 167.826C62.7531 167.82 62.8087 167.799 62.856 167.764C63.0493 167.627 63.2085 167.446 63.3209 167.236C63.4333 167.026 63.496 166.793 63.504 166.554V166.391H62.9208L62.8106 165.626L62.3505 165.547ZM63.1281 166.149H63.504V164.808L62.6033 165.344L63.0504 165.423L63.1281 166.149Z" fill="white"/>
<path d="M62.9143 169.634C62.899 169.634 62.8838 169.631 62.8697 169.626C62.8555 169.62 62.8427 169.611 62.8318 169.6C62.821 169.589 62.8124 169.576 62.8065 169.562C62.8007 169.548 62.7977 169.532 62.7977 169.517V167.875C62.7934 167.857 62.7934 167.838 62.7974 167.82C62.8015 167.802 62.8096 167.784 62.8211 167.77C62.8326 167.755 62.8473 167.743 62.864 167.735C62.8807 167.727 62.899 167.723 62.9176 167.723C62.9361 167.723 62.9544 167.727 62.9711 167.735C62.9878 167.743 63.0025 167.755 63.014 167.77C63.0255 167.784 63.0336 167.802 63.0377 167.82C63.0417 167.838 63.0417 167.857 63.0374 167.875V169.517C63.0375 169.533 63.0342 169.549 63.028 169.563C63.0217 169.578 63.0125 169.591 63.001 169.602C62.9895 169.613 62.9758 169.622 62.9609 169.627C62.946 169.633 62.9302 169.635 62.9143 169.634Z" fill="white"/>
<path d="M62.208 170.04C62.182 170.038 62.1573 170.029 62.1372 170.012C62.1172 169.995 62.1029 169.972 62.0964 169.947C62.09 169.922 62.0916 169.895 62.1012 169.87C62.1107 169.846 62.1277 169.825 62.1497 169.811L63.5623 168.994C63.5751 168.984 63.5898 168.978 63.6053 168.975C63.6208 168.972 63.6368 168.972 63.6522 168.976C63.6676 168.98 63.6819 168.987 63.6944 168.997C63.7068 169.006 63.717 169.019 63.7243 169.033C63.7336 169.046 63.74 169.062 63.7431 169.078C63.7462 169.094 63.7459 169.111 63.7422 169.127C63.7386 169.143 63.7316 169.158 63.7218 169.171C63.712 169.184 63.6996 169.195 63.6854 169.203L62.2728 170.04H62.208Z" fill="white"/>
<path d="M67.2364 167.228C67.1938 167.237 67.1495 167.237 67.1068 167.228C67.0573 167.196 67.0173 167.151 66.9911 167.098C66.9648 167.045 66.9533 166.986 66.9578 166.927V166.593C66.9578 166.561 66.9708 166.529 66.9939 166.506C67.0169 166.482 67.0483 166.469 67.0809 166.469C67.1136 166.469 67.1449 166.482 67.168 166.506C67.1911 166.529 67.204 166.561 67.204 166.593V166.927C67.1951 166.955 67.1951 166.984 67.204 167.012C67.204 167.012 67.2429 167.012 67.2883 167.012C67.3614 166.94 67.4188 166.853 67.4567 166.758C67.4947 166.662 67.5123 166.559 67.5086 166.456V164.278C67.5102 164.246 67.5236 164.215 67.5464 164.192C67.5692 164.169 67.5996 164.156 67.6317 164.154C67.6644 164.154 67.6957 164.167 67.7188 164.19C67.7419 164.214 67.7548 164.245 67.7548 164.278V166.456C67.7602 166.602 67.7319 166.747 67.6723 166.88C67.6127 167.012 67.5234 167.129 67.4114 167.221C67.3544 167.237 67.2945 167.24 67.2364 167.228Z" fill="white"/>
<path d="M65.9599 165.325V165.109C65.988 164.565 66.1437 164.035 66.414 163.563C66.6844 163.091 67.0617 162.691 67.5151 162.395C67.676 162.256 67.8757 162.171 68.0865 162.151C68.2974 162.132 68.509 162.179 68.6924 162.285C68.8758 162.392 69.0218 162.554 69.1103 162.748C69.1989 162.942 69.2257 163.159 69.1869 163.369V163.441L65.9599 165.325ZM68.2409 162.414C68.0253 162.426 67.816 162.491 67.6317 162.604C67.2473 162.862 66.9219 163.199 66.6772 163.594C66.4324 163.989 66.274 164.432 66.2126 164.893L68.9407 163.297C68.9512 163.144 68.9227 162.99 68.8581 162.85C68.7935 162.711 68.6948 162.59 68.5713 162.499C68.4707 162.442 68.3566 162.413 68.2409 162.414Z" fill="white"/>
<path d="M71.604 164.716C71.5876 164.717 71.5711 164.715 71.5558 164.709C71.5404 164.703 71.5265 164.694 71.5148 164.682C71.5032 164.67 71.4942 164.656 71.4883 164.641C71.4825 164.625 71.4799 164.609 71.4809 164.592V160.42C71.4766 160.401 71.4766 160.382 71.4806 160.364C71.4847 160.346 71.4927 160.329 71.5043 160.314C71.5158 160.299 71.5305 160.288 71.5472 160.279C71.5639 160.271 71.5822 160.267 71.6008 160.267C71.6193 160.267 71.6376 160.271 71.6543 160.279C71.671 160.288 71.6857 160.299 71.6972 160.314C71.7087 160.329 71.7168 160.346 71.7209 160.364C71.7249 160.382 71.7249 160.401 71.7206 160.42V164.592C71.7215 164.608 71.7191 164.624 71.7137 164.639C71.7082 164.654 71.6998 164.668 71.6888 164.68C71.6779 164.691 71.6648 164.701 71.6502 164.707C71.6356 164.713 71.6199 164.716 71.604 164.716Z" fill="white"/>
<path d="M71.28 161.375H71.2281C71.2132 161.368 71.1997 161.359 71.1885 161.347C71.1774 161.335 71.1688 161.321 71.1633 161.306C71.1578 161.29 71.1555 161.274 71.1567 161.258C71.1578 161.241 71.1623 161.225 71.1698 161.211L71.5975 160.204L72.0835 160.766C72.105 160.791 72.1157 160.824 72.1132 160.857C72.1108 160.89 72.0954 160.921 72.0705 160.943C72.0456 160.965 72.0132 160.975 71.9804 160.973C71.9475 160.97 71.917 160.955 71.8956 160.93L71.6688 160.662L71.3901 161.316C71.3786 161.334 71.3623 161.35 71.343 161.36C71.3236 161.371 71.3019 161.375 71.28 161.375Z" fill="white"/>
<path d="M72.725 164.069C72.6924 164.069 72.6611 164.056 72.638 164.033C72.6149 164.009 72.6019 163.978 72.6019 163.945V159.772C72.6019 159.739 72.6149 159.708 72.638 159.684C72.6611 159.661 72.6924 159.648 72.725 159.648C72.7577 159.648 72.789 159.661 72.8121 159.684C72.8352 159.708 72.8481 159.739 72.8481 159.772V163.945C72.8481 163.978 72.8352 164.009 72.8121 164.033C72.789 164.056 72.7577 164.069 72.725 164.069Z" fill="white"/>
<path d="M72.3686 160.727H72.3233C72.3086 160.721 72.2952 160.713 72.2839 160.702C72.2726 160.69 72.2637 160.677 72.2577 160.663C72.2516 160.648 72.2486 160.632 72.2487 160.616C72.2488 160.6 72.2522 160.585 72.2585 160.57L72.6926 159.556L73.1721 160.119C73.1837 160.13 73.1929 160.144 73.1991 160.159C73.2054 160.174 73.2086 160.191 73.2086 160.207C73.2086 160.224 73.2054 160.24 73.1991 160.255C73.1929 160.27 73.1837 160.284 73.1721 160.295C73.1612 160.307 73.1482 160.316 73.1337 160.322C73.1192 160.329 73.1036 160.332 73.0879 160.332C73.0722 160.332 73.0566 160.329 73.0421 160.322C73.0276 160.316 73.0145 160.307 73.0037 160.295L72.7704 160.027L72.4917 160.681C72.4781 160.7 72.4591 160.715 72.4372 160.723C72.4152 160.731 72.3913 160.733 72.3686 160.727Z" fill="white"/>
<path d="M59.603 174.187L35.9121 160.387V141.977L59.603 155.783V174.187Z" fill="#E0E0E0"/>
<path d="M46.8633 152.715L48.6453 153.755V149.4L46.8633 148.36V152.715Z" fill="#F5F5F5"/>
<path d="M48.6453 149.4L72.3362 135.6L70.5542 134.554L46.8633 148.36L48.6453 149.4Z" fill="white"/>
<path d="M39.6641 153.37L45.3146 156.64C45.6415 156.855 45.9139 157.144 46.1097 157.485C46.3055 157.826 46.4194 158.208 46.4421 158.602V162.127C46.4421 162.846 45.9367 163.14 45.3146 162.781L39.6641 159.511C39.3373 159.296 39.0654 159.006 38.8706 158.665C38.6758 158.324 38.5635 157.942 38.543 157.549V154.03C38.543 153.298 39.0485 153.036 39.6641 153.37Z" fill="#F5F5F5"/>
<path d="M39.2299 154.246L39.4438 154.37V158.281L39.2299 158.157V154.246Z" fill="#E0E0E0"/>
<path d="M40.0982 154.756L40.474 154.978V158.883L40.0982 158.667V154.756Z" fill="#E0E0E0"/>
<path d="M40.973 155.266L41.1933 155.39L41.1869 159.301L40.973 159.177V155.266Z" fill="#E0E0E0"/>
<path d="M41.634 155.646L42.0682 155.901L42.0617 159.811L41.634 159.55V155.646Z" fill="#E0E0E0"/>
<path d="M42.7226 156.286L42.9365 156.411V160.322L42.7226 160.191V156.286Z" fill="#E0E0E0"/>
<path d="M43.3512 156.646L43.8112 156.921V160.825L43.3512 160.551V156.646Z" fill="#E0E0E0"/>
<path d="M44.4722 157.307L44.6861 157.431V161.335L44.4722 161.211V157.307Z" fill="#E0E0E0"/>
<path d="M44.9712 157.588L45.0814 157.653V161.558L44.9712 161.499V157.588Z" fill="#E0E0E0"/>
<path d="M44.0769 157.091L44.1806 157.15V161.061L44.0769 161.002V157.091Z" fill="#E0E0E0"/>
<path d="M42.3144 156.051L42.418 156.11V160.021L42.3144 159.955V156.051Z" fill="#E0E0E0"/>
<path d="M41.3488 155.489L41.459 155.554V159.458L41.3488 159.399V155.489Z" fill="#E0E0E0"/>
<path d="M40.6555 155.103L40.7657 155.168V159.079L40.6555 159.014V155.103Z" fill="#E0E0E0"/>
<path d="M39.7159 154.527L39.8261 154.593V158.497L39.7159 158.438V154.527Z" fill="#E0E0E0"/>
<path d="M45.347 157.81L45.5609 157.941V161.845L45.347 161.721V157.81Z" fill="#E0E0E0"/>
<path d="M78.0257 105.17L59.603 94.4312L41.1739 105.17L59.603 115.902L78.0257 105.17Z" fill="#F5F5F5"/>
<path d="M59.603 152.716L78.0257 141.977V105.17L59.603 115.902V152.716Z" fill="#EBEBEB"/>
<path d="M62.6421 146.607C62.5607 146.608 62.4804 146.588 62.4089 146.548C62.3076 146.475 62.2269 146.376 62.1747 146.261C62.1225 146.146 62.1005 146.02 62.1108 145.894V143.932V143.789H62.208L63.7243 142.893V145.07C63.7206 145.351 63.6511 145.626 63.5216 145.874C63.3921 146.122 63.2061 146.335 62.9791 146.496C62.8784 146.562 62.7622 146.601 62.6421 146.607ZM62.3505 144.076V145.888C62.3403 145.971 62.3509 146.055 62.3815 146.133C62.4121 146.211 62.4616 146.279 62.5255 146.333C62.5785 146.357 62.6371 146.367 62.6951 146.361C62.7531 146.355 62.8087 146.334 62.856 146.3C63.0495 146.161 63.2086 145.979 63.321 145.768C63.4334 145.557 63.496 145.323 63.504 145.083V144.927H62.9208L62.8106 144.161L62.3505 144.076ZM63.1281 144.678H63.504V143.337L62.6033 143.874L63.0504 143.952L63.1281 144.678Z" fill="white"/>
<path d="M62.9143 148.164C62.8984 148.164 62.8827 148.161 62.8681 148.154C62.8535 148.148 62.8404 148.139 62.8294 148.127C62.8185 148.115 62.8101 148.102 62.8046 148.087C62.7991 148.071 62.7968 148.055 62.7977 148.039V146.404C62.7968 146.388 62.7991 146.372 62.8046 146.357C62.8101 146.342 62.8185 146.329 62.8294 146.317C62.8404 146.305 62.8535 146.296 62.8681 146.29C62.8827 146.283 62.8984 146.28 62.9143 146.28C62.9307 146.279 62.9471 146.282 62.9625 146.288C62.9779 146.294 62.9918 146.303 63.0035 146.315C63.0151 146.326 63.0241 146.34 63.03 146.356C63.0358 146.371 63.0384 146.388 63.0374 146.404V148.039C63.0384 148.056 63.0358 148.073 63.03 148.088C63.0241 148.104 63.0151 148.118 63.0035 148.129C62.9918 148.141 62.9779 148.15 62.9625 148.156C62.9471 148.162 62.9307 148.165 62.9143 148.164Z" fill="white"/>
<path d="M62.208 148.576C62.182 148.574 62.1573 148.564 62.1372 148.548C62.1172 148.531 62.1029 148.508 62.0964 148.483C62.09 148.457 62.0916 148.431 62.1012 148.406C62.1107 148.382 62.1277 148.361 62.1497 148.347L63.5623 147.523C63.5907 147.506 63.6243 147.502 63.6559 147.511C63.6875 147.519 63.7145 147.54 63.7308 147.569C63.7471 147.597 63.7515 147.631 63.743 147.663C63.7345 147.695 63.7138 147.722 63.6854 147.739L62.2728 148.556C62.2538 148.57 62.2311 148.576 62.208 148.576Z" fill="white"/>
<path d="M67.2365 145.757C67.1904 145.757 67.1453 145.744 67.1069 145.718C67.0574 145.688 67.0172 145.644 66.9909 145.592C66.9645 145.54 66.9531 145.482 66.9578 145.424V145.09C66.9578 145.057 66.9708 145.025 66.9939 145.002C67.017 144.979 67.0483 144.966 67.0809 144.966C67.1136 144.966 67.1449 144.979 67.168 145.002C67.1911 145.025 67.2041 145.057 67.2041 145.09V145.424C67.1952 145.451 67.1952 145.481 67.2041 145.509C67.2316 145.516 67.2608 145.516 67.2883 145.509C67.3623 145.439 67.4203 145.353 67.4583 145.258C67.4964 145.164 67.5135 145.061 67.5086 144.959V142.781C67.5086 142.748 67.5216 142.717 67.5447 142.694C67.5678 142.67 67.5991 142.657 67.6317 142.657C67.6482 142.656 67.6646 142.659 67.6799 142.665C67.6953 142.671 67.7093 142.68 67.7209 142.691C67.7325 142.703 67.7415 142.717 67.7474 142.733C67.7533 142.748 67.7558 142.765 67.7549 142.781V144.959C67.7602 145.105 67.732 145.25 67.6724 145.383C67.6128 145.515 67.5234 145.632 67.4114 145.724C67.3565 145.749 67.2965 145.761 67.2365 145.757Z" fill="white"/>
<path d="M65.9599 143.88V143.671C65.9891 143.126 66.1451 142.596 66.4153 142.123C66.6855 141.65 67.0623 141.248 67.5151 140.95C67.6775 140.814 67.8772 140.732 68.0873 140.715C68.2974 140.697 68.5078 140.745 68.69 140.852C68.8723 140.959 69.0177 141.12 69.1065 141.313C69.1954 141.506 69.2234 141.722 69.1869 141.931V141.996L65.9599 143.88ZM68.2409 140.976C68.0253 140.987 67.816 141.053 67.6317 141.166C67.2481 141.423 66.9231 141.759 66.6784 142.153C66.4337 142.546 66.2749 142.988 66.2126 143.448L68.9407 141.859C68.9524 141.705 68.9246 141.551 68.8598 141.411C68.7951 141.271 68.6958 141.151 68.5713 141.061C68.474 140.992 68.3596 140.951 68.2409 140.944V140.976Z" fill="white"/>
<path d="M71.604 143.226C71.5713 143.226 71.54 143.213 71.5169 143.19C71.4938 143.166 71.4809 143.135 71.4809 143.102V138.929C71.4766 138.911 71.4766 138.892 71.4806 138.874C71.4847 138.855 71.4927 138.838 71.5043 138.824C71.5158 138.809 71.5305 138.797 71.5472 138.789C71.5639 138.781 71.5822 138.777 71.6008 138.777C71.6193 138.777 71.6376 138.781 71.6543 138.789C71.671 138.797 71.6857 138.809 71.6972 138.824C71.7087 138.838 71.7168 138.855 71.7209 138.874C71.7249 138.892 71.7249 138.911 71.7206 138.929V143.102C71.7207 143.134 71.7086 143.164 71.6869 143.187C71.6652 143.21 71.6355 143.224 71.604 143.226Z" fill="white"/>
<path d="M71.28 139.897H71.2281C71.2132 139.891 71.1997 139.882 71.1885 139.87C71.1774 139.858 71.1688 139.844 71.1633 139.828C71.1578 139.813 71.1555 139.797 71.1567 139.78C71.1578 139.764 71.1623 139.748 71.1698 139.734L71.5975 138.727L72.0835 139.289C72.1049 139.312 72.1168 139.342 72.1168 139.374C72.1168 139.406 72.1049 139.436 72.0835 139.459C72.0596 139.481 72.0284 139.493 71.996 139.493C71.9636 139.493 71.9324 139.481 71.9085 139.459L71.6817 139.191L71.4031 139.845C71.3903 139.865 71.3717 139.881 71.3497 139.891C71.3277 139.9 71.3033 139.902 71.28 139.897Z" fill="white"/>
<path d="M72.725 142.572C72.6929 142.571 72.6625 142.557 72.6397 142.534C72.6169 142.511 72.6035 142.48 72.6019 142.448V138.275C72.6019 138.242 72.6149 138.211 72.638 138.188C72.6611 138.164 72.6924 138.151 72.725 138.151C72.7577 138.151 72.789 138.164 72.8121 138.188C72.8352 138.211 72.8481 138.242 72.8481 138.275V142.448C72.8466 142.48 72.8331 142.511 72.8103 142.534C72.7876 142.557 72.7572 142.571 72.725 142.572Z" fill="white"/>
<path d="M72.3686 139.256H72.3233C72.3084 139.25 72.2948 139.241 72.2835 139.229C72.2722 139.217 72.2632 139.203 72.2572 139.188C72.2512 139.173 72.2482 139.157 72.2484 139.14C72.2486 139.124 72.2521 139.108 72.2585 139.093L72.6926 138.086L73.1721 138.648C73.1837 138.66 73.1929 138.673 73.1991 138.689C73.2054 138.704 73.2086 138.72 73.2086 138.736C73.2086 138.753 73.2054 138.769 73.1991 138.784C73.1929 138.799 73.1837 138.813 73.1721 138.825C73.1487 138.845 73.1188 138.856 73.0879 138.856C73.057 138.856 73.0271 138.845 73.0037 138.825L72.7704 138.557L72.4918 139.211C72.4776 139.229 72.4585 139.243 72.4367 139.251C72.415 139.26 72.3913 139.261 72.3686 139.256Z" fill="white"/>
<path d="M59.603 152.716L41.1739 141.977V105.17L59.603 115.902V152.716Z" fill="#E0E0E0"/>
<path d="M49.9154 114.614L51.7039 115.654V111.304L49.9154 110.258V114.614Z" fill="#F5F5F5"/>
<path d="M51.7039 111.304L70.1266 100.566L68.3446 99.5259L49.9154 110.258L51.7039 111.304Z" fill="white"/>
<path d="M44.9258 134.959L50.5764 138.229C50.9035 138.444 51.1757 138.733 51.3705 139.074C51.5654 139.415 51.6774 139.798 51.6974 140.191V143.71C51.6974 144.429 51.1984 144.724 50.5764 144.364L44.9258 141.094C44.5978 140.88 44.3247 140.591 44.1287 140.25C43.9328 139.909 43.8195 139.526 43.7983 139.132V135.613C43.8048 134.894 44.3037 134.6 44.9258 134.959Z" fill="#F5F5F5"/>
<path d="M44.4852 135.843L44.699 135.967V139.878L44.4852 139.747V135.843Z" fill="#E0E0E0"/>
<path d="M45.36 136.353L45.7293 136.568V140.479L45.36 140.257V136.353Z" fill="#E0E0E0"/>
<path d="M46.2348 136.856L46.4486 136.987V140.891L46.2348 140.767V136.856Z" fill="#E0E0E0"/>
<path d="M46.8957 137.235L47.3234 137.497V141.401L46.8957 141.146V137.235Z" fill="#E0E0E0"/>
<path d="M47.9844 137.876L48.1982 138.001V141.912L47.9844 141.787V137.876Z" fill="#E0E0E0"/>
<path d="M48.6129 138.236L49.073 138.511V142.422L48.6129 142.147V138.236Z" fill="#E0E0E0"/>
<path d="M49.734 138.896L49.9478 139.021V142.932L49.734 142.801V138.896Z" fill="#E0E0E0"/>
<path d="M50.2329 139.184L50.3366 139.243V143.154L50.2329 143.089V139.184Z" fill="#E0E0E0"/>
<path d="M49.3322 138.681L49.4424 138.746V142.657L49.3322 142.592V138.681Z" fill="#E0E0E0"/>
<path d="M47.5697 137.641L47.6798 137.706V141.611L47.5697 141.552V137.641Z" fill="#E0E0E0"/>
<path d="M46.6042 137.085L46.7143 137.144V141.055L46.6042 140.989V137.085Z" fill="#E0E0E0"/>
<path d="M45.9172 136.699L46.0209 136.758V140.669L45.9172 140.604V136.699Z" fill="#E0E0E0"/>
<path d="M44.9777 136.124L45.0813 136.182V140.093L44.9777 140.028V136.124Z" fill="#E0E0E0"/>
<path d="M50.6023 139.407L50.8226 139.531V143.435L50.6023 143.311V139.407Z" fill="#E0E0E0"/>
<path d="M41.3489 206.5L112.072 247.702C112.941 248.148 113.902 248.38 114.877 248.38C115.853 248.38 116.814 248.148 117.683 247.702L272.64 157.45C274.188 156.548 274.188 155.083 272.64 154.18L201.917 112.978C201.048 112.53 200.087 112.296 199.111 112.296C198.135 112.296 197.174 112.53 196.305 112.978L41.3489 203.23C39.8002 204.133 39.8002 205.598 41.3489 206.5Z" fill="#455A64"/>
<path d="M79.5744 225.63C80.7802 226.244 82.1119 226.564 83.4624 226.564C84.8129 226.564 86.1446 226.244 87.3504 225.63C89.5082 224.374 89.5082 222.36 87.3504 221.085C86.1455 220.468 84.8135 220.146 83.4624 220.146C82.1113 220.146 80.7793 220.468 79.5744 221.085C77.4166 222.36 77.4166 224.387 79.5744 225.63Z" fill="#263238"/>
<path d="M113.4 247.702L42.6773 206.5C41.2906 205.689 41.148 204.434 42.2431 203.531C41.5514 204.083 40.9827 204.777 40.5741 205.565C40.1655 206.354 39.9261 207.221 39.8715 208.109V210.771C39.9247 211.754 40.2064 212.71 40.6939 213.562C41.1813 214.414 41.8608 215.138 42.6773 215.676L113.4 256.878C114.265 257.334 115.231 257.559 116.206 257.532V248.383C115.228 248.402 114.262 248.167 113.4 247.702Z" fill="#37474F"/>
<path d="M272.633 166.62C273.451 166.083 274.133 165.36 274.621 164.507C275.11 163.655 275.392 162.698 275.445 161.715V159.053C275.393 158.163 275.154 157.295 274.744 156.506C274.334 155.717 273.762 155.024 273.067 154.475C274.169 155.377 274.026 156.633 272.64 157.437L117.683 247.703C116.818 248.157 115.852 248.382 114.877 248.357V257.558C115.852 257.584 116.818 257.359 117.683 256.904L272.633 166.62Z" fill="#263238"/>
<path d="M123.723 239.168L56.0326 199.705C55.0995 199.163 55.0995 198.28 56.0326 197.743L186.877 121.48C187.399 121.213 187.976 121.073 188.562 121.073C189.147 121.073 189.724 121.213 190.246 121.48L257.962 160.936C258.889 161.479 258.889 162.355 257.962 162.898L127.066 239.168C126.548 239.431 125.975 239.568 125.395 239.568C124.814 239.568 124.241 239.431 123.723 239.168Z" fill="white"/>
<path d="M96.4483 217.135L104.347 212.53L101.717 211L93.8174 215.598L96.4483 217.135Z" fill="#121212"/>
<path d="M191.212 161.917L199.111 157.313L196.474 155.783L188.581 160.387L191.212 161.917Z" fill="#121212"/>
<path d="M207.004 152.716L214.903 148.111L212.272 146.581L204.373 151.179L207.004 152.716Z" fill="#121212"/>
<path d="M232.353 136.594C232.66 136.749 232.999 136.83 233.342 136.83C233.685 136.83 234.023 136.749 234.33 136.594C234.449 136.553 234.552 136.476 234.625 136.373C234.698 136.269 234.737 136.146 234.737 136.019C234.737 135.892 234.698 135.768 234.625 135.665C234.552 135.562 234.449 135.484 234.33 135.443C234.024 135.285 233.685 135.203 233.342 135.203C232.998 135.203 232.659 135.285 232.353 135.443C232.234 135.484 232.131 135.562 232.058 135.665C231.985 135.768 231.946 135.892 231.946 136.019C231.946 136.146 231.985 136.269 232.058 136.373C232.131 136.476 232.234 136.553 232.353 136.594Z" fill="#263238"/>
<path d="M235.509 145.626C236.121 145.939 236.797 146.102 237.482 146.102C238.168 146.102 238.844 145.939 239.455 145.626C240.544 144.972 240.544 143.959 239.455 143.324C238.844 143.012 238.168 142.849 237.482 142.849C236.797 142.849 236.121 143.012 235.509 143.324C234.42 143.959 234.42 144.992 235.509 145.626Z" fill="#263238"/>
<path d="M232.723 141.624C233.449 141.199 233.41 140.492 232.639 140.041L219.679 132.474C219.261 132.249 218.797 132.126 218.324 132.117C217.851 132.108 217.382 132.212 216.957 132.422C216.231 132.847 216.27 133.553 217.041 134.005L230.04 141.571C230.452 141.79 230.91 141.909 231.375 141.918C231.841 141.927 232.302 141.826 232.723 141.624Z" fill="#263238"/>
<path d="M210.6 110.938L211.041 110.676C210.736 111.792 210.588 112.946 210.6 114.103V115.699C210.6 121.428 217.41 136.065 219.918 141.244C220.177 141.787 216.737 145.482 216.737 145.482L220.825 143.102C220.825 143.102 231.044 134.6 231.044 127.615V126.019C231.044 119.002 226.47 110.65 220.825 107.361C217.974 105.706 215.402 105.647 213.548 106.903L209.66 109.153L210.6 110.938ZM215.713 116.294C215.713 113.024 218 111.67 220.825 113.319C220.592 115.431 224.415 122.01 225.932 122.252C225.932 125.522 223.644 126.876 220.825 125.228C219.342 124.247 218.108 122.927 217.224 121.375C216.34 119.822 215.831 118.082 215.739 116.294H215.713Z" fill="#121212"/>
<path d="M206.394 118.256C206.511 125.267 217.061 145.482 217.061 145.482C217.061 145.482 227.143 136.836 227.033 129.825V128.23C226.917 121.219 222.206 112.939 216.503 109.748C210.801 106.556 206.278 109.643 206.394 116.66V118.256ZM211.514 118.766C211.462 115.496 213.73 114.103 216.575 115.699C218.078 116.653 219.338 117.952 220.251 119.489C221.164 121.026 221.705 122.76 221.83 124.548C221.888 127.818 219.62 129.211 216.769 127.615C215.267 126.659 214.009 125.36 213.096 123.823C212.183 122.286 211.641 120.554 211.514 118.766Z" fill="#121212"/>
<path opacity="0.1" d="M206.394 118.256C206.511 125.267 217.061 145.482 217.061 145.482C217.061 145.482 227.143 136.836 227.033 129.825V128.23C226.917 121.219 222.206 112.939 216.503 109.748C210.801 106.556 206.278 109.643 206.394 116.66V118.256ZM211.514 118.766C211.462 115.496 213.73 114.103 216.575 115.699C218.078 116.653 219.338 117.952 220.251 119.489C221.164 121.026 221.705 122.76 221.83 124.548C221.888 127.818 219.62 129.211 216.769 127.615C215.267 126.659 214.009 125.36 213.096 123.823C212.183 122.286 211.641 120.554 211.514 118.766Z" fill="black"/>
<path d="M107.568 211.759C114.119 215.565 129.477 212.798 141.873 205.572L175.925 185.736C188.322 178.509 193.052 169.576 186.488 165.776C179.924 161.976 164.553 164.756 152.144 171.976L118.156 191.785C105.767 199.006 101.023 207.972 107.568 211.759Z" fill="#F0F0F0"/>
<path d="M206.712 45.466H206.744L212.35 42.196H212.395C215.927 40.391 220.644 40.888 225.724 44.2234C235.937 50.855 243.732 66.1586 243.143 78.3949C242.845 84.4967 240.551 88.6823 237.006 90.5266H236.974L231.362 93.7966H231.323C227.791 95.6082 223.068 95.1046 217.981 91.7757C207.775 85.1376 199.979 69.8406 200.569 57.6042C200.88 51.4959 203.206 47.3103 206.712 45.466Z" fill="#37474F"/>
<path d="M231.647 93.6265L236.993 90.4873H237.032C240.544 88.6365 242.864 84.4509 243.162 78.3556C243.421 72.9013 242.015 66.8387 239.475 61.2078L233.863 64.4778C236.41 70.1087 237.816 76.1713 237.55 81.6322C237.272 87.5836 235.043 91.7234 231.647 93.6265Z" fill="#263238"/>
<path d="M218.007 91.7693C207.801 85.1312 200.005 69.8341 200.595 57.5978C201.185 45.3614 209.952 40.8161 220.139 47.4477C230.325 54.0793 238.147 69.3829 237.557 81.6192C236.967 93.8555 228.213 98.4008 218.007 91.7693Z" fill="#455A64"/>
<path d="M226.56 90.9059C232.58 91.2002 233.559 84.3659 233.688 81.4229C234.207 70.6319 227.04 56.5709 218.039 50.7176C216.121 49.3618 213.889 48.5283 211.559 48.2978C205.546 48.0035 204.567 54.8378 204.431 57.7808C203.913 68.5718 211.073 82.6328 220.08 88.5188C221.998 89.8746 224.23 90.7081 226.56 90.9386V90.9059Z" fill="#FAFAFA"/>
<path d="M217.897 71.6325C217.967 71.6327 218.038 71.6194 218.104 71.5933C218.239 71.5489 218.356 71.4608 218.437 71.3426C218.518 71.2244 218.558 71.0827 218.551 70.9393V55.3544C218.551 55.181 218.483 55.0146 218.361 54.892C218.24 54.7693 218.075 54.7004 217.903 54.7004C217.731 54.7004 217.566 54.7693 217.445 54.892C217.323 55.0146 217.255 55.181 217.255 55.3544V69.0427L210.043 59.6905C209.936 59.5517 209.779 59.4613 209.607 59.4393C209.434 59.4172 209.26 59.4652 209.123 59.5727C208.985 59.6803 208.896 59.8385 208.874 60.0127C208.852 60.1869 208.899 60.3627 209.006 60.5014L217.398 71.3774C217.457 71.4549 217.532 71.518 217.618 71.5621C217.705 71.6062 217.8 71.6303 217.897 71.6325Z" fill="#37474F"/>
<path d="M221.616 83.1627C221.646 83.1687 221.677 83.1687 221.707 83.1627C221.775 83.1414 221.833 83.0941 221.868 83.0308C221.903 82.9674 221.913 82.8928 221.895 82.8226L218.259 70.4685C218.239 70.3983 218.191 70.3392 218.128 70.3042C218.064 70.2693 217.989 70.2613 217.919 70.2821C217.85 70.3029 217.791 70.3508 217.756 70.4152C217.722 70.4796 217.714 70.5552 217.734 70.6255L221.363 82.9795C221.382 83.0325 221.416 83.0784 221.461 83.1111C221.506 83.1439 221.56 83.1619 221.616 83.1627Z" fill="#121212"/>
<path d="M218.104 67.8458C216.899 67.0676 215.868 67.6039 215.803 69.0427C215.807 69.8275 215.995 70.6002 216.351 71.298C216.707 71.9958 217.221 72.5989 217.851 73.0582C219.05 73.843 220.08 73.3068 220.152 71.868C220.146 71.0826 219.958 70.3094 219.602 69.6108C219.247 68.9122 218.733 68.3077 218.104 67.8458Z" fill="#121212"/>
<path d="M112.247 207.933L120.139 203.329L117.508 201.798L109.616 206.396L112.247 207.933Z" fill="#121212"/>
<path d="M128.038 198.731L135.937 194.127L133.3 192.596L125.407 197.194L128.038 198.731Z" fill="#121212"/>
<path d="M124.792 196.854C124.792 200.7 122.122 205.356 118.824 207.318C117.068 208.345 115.487 208.378 114.398 207.606C113.959 207.258 113.599 206.819 113.34 206.32C113.082 205.82 112.933 205.271 112.901 204.709C113.123 204.604 113.339 204.489 113.549 204.362C116.847 202.446 119.517 197.77 119.517 193.898C119.52 193.612 119.503 193.325 119.465 193.041C119.96 192.777 120.503 192.62 121.061 192.58C121.619 192.539 122.179 192.616 122.705 192.806C124.001 193.355 124.792 194.774 124.792 196.854Z" fill="#263238"/>
<path d="M125.33 188.954L125.22 188.888C123.561 187.999 121.332 188.162 118.824 189.614C113.737 192.577 109.609 199.784 109.609 205.716C109.609 208.698 110.653 210.784 112.337 211.752C114.022 212.72 116.297 212.556 118.817 211.098C123.904 208.135 128.025 200.922 128.025 194.99C128.032 192.008 127.008 189.922 125.33 188.954ZM118.85 207.305C117.087 208.332 115.506 208.364 114.417 207.586C113.458 206.932 112.875 205.624 112.875 203.826C112.875 199.987 115.551 195.324 118.85 193.362C120.353 192.485 121.72 192.335 122.738 192.786C123.995 193.329 124.785 194.748 124.785 196.841C124.792 200.713 122.122 205.389 118.824 207.318L118.85 207.305Z" fill="#37474F"/>
<path d="M123.042 192.963L122.971 192.924C121.895 192.341 120.437 192.453 118.824 193.388C115.525 195.311 112.849 199.987 112.849 203.852C112.849 205.814 113.497 207.122 114.618 207.776C115.739 208.43 117.21 208.299 118.824 207.344C122.122 205.421 124.792 200.745 124.792 196.88C124.792 194.944 124.124 193.584 123.042 192.963ZM118.824 205.945C117.411 206.769 116.141 206.795 115.26 206.167C114.495 205.624 114.022 204.584 114.022 203.146C114.113 201.465 114.595 199.829 115.429 198.371C116.263 196.913 117.426 195.674 118.824 194.755C119.278 194.435 119.799 194.226 120.347 194.146C120.895 194.065 121.454 194.115 121.98 194.29C122.99 194.729 123.625 195.867 123.625 197.56C123.535 199.241 123.053 200.876 122.219 202.333C121.385 203.789 120.221 205.027 118.824 205.945Z" fill="#121212"/>
<path d="M143.83 189.523L151.729 184.925L149.098 183.388L141.199 187.992L143.83 189.523Z" fill="#121212"/>
<path d="M159.628 180.321L167.521 175.723L164.89 174.186L156.991 178.79L159.628 180.321Z" fill="#121212"/>
<path d="M175.42 171.119L183.313 166.522L180.682 164.985L172.783 169.589L175.42 171.119Z" fill="#121212"/>
<path d="M136.119 128.328C136.201 128.217 136.317 128.135 136.449 128.094C136.581 128.054 136.722 128.057 136.852 128.103C136.982 128.149 137.094 128.235 137.172 128.35C137.25 128.464 137.29 128.601 137.285 128.74C137.336 129.112 137.298 129.491 137.176 129.846C137.053 130.201 136.848 130.521 136.579 130.78C136.061 131.232 135.536 131.049 135.413 130.368C135.362 129.996 135.4 129.617 135.523 129.263C135.646 128.908 135.85 128.588 136.119 128.328Z" fill="#121212"/>
<path d="M142.197 131.219L136.916 128.138L135.756 130.957L141.057 134.044L142.197 131.219Z" fill="#121212"/>
<path d="M141.387 131.395C141.906 130.951 142.424 131.134 142.554 131.814C142.601 132.186 142.562 132.563 142.438 132.917C142.314 133.27 142.109 133.589 141.841 133.848C141.322 134.299 140.797 134.116 140.674 133.436C140.627 133.063 140.667 132.684 140.791 132.33C140.914 131.976 141.119 131.656 141.387 131.395Z" fill="#121212"/>
<path d="M181.978 157.189C181.978 157.32 181.978 157.438 181.978 157.568C181.978 157.83 181.978 158.098 181.978 158.366C180.928 157.915 179.561 158.065 178.057 158.942C174.759 160.864 172.083 165.541 172.083 169.406C172.083 171.198 172.666 172.493 173.625 173.166C173.356 173.359 173.077 173.538 172.789 173.702L172.485 173.859L171.571 177.332L166.283 174.356C164.611 173.382 163.581 171.302 163.581 168.333C163.581 162.401 167.702 155.194 172.789 152.225C175.303 150.76 177.578 150.61 179.269 151.571L184.453 154.501L184.563 154.566L181.978 157.189Z" fill="#455A64"/>
<path d="M184.557 154.508L184.447 154.442C182.788 153.553 180.559 153.716 178.051 155.168C172.964 158.131 168.836 165.338 168.836 171.27C168.836 174.252 169.88 176.338 171.564 177.306C173.249 178.274 175.524 178.11 178.044 176.652C183.131 173.689 187.253 166.476 187.253 160.544C187.272 157.562 186.229 155.475 184.557 154.508ZM178.077 172.859C176.314 173.886 174.733 173.918 173.645 173.14C172.686 172.486 172.102 171.178 172.102 169.38C172.102 165.541 174.779 160.878 178.077 158.916C179.58 158.039 180.948 157.889 181.997 158.34C183.254 158.883 184.045 160.302 184.045 162.395C184.032 166.267 181.349 170.943 178.051 172.859H178.077Z" fill="#37474F"/>
<path d="M184.032 162.421C184.032 166.267 181.362 170.923 178.064 172.885C176.308 173.912 174.727 173.945 173.638 173.173C173.199 172.825 172.839 172.386 172.581 171.887C172.323 171.387 172.173 170.838 172.141 170.276C172.363 170.171 172.579 170.055 172.789 169.929C176.088 168.013 178.757 163.337 178.757 159.465C178.76 159.178 178.743 158.892 178.705 158.608C179.2 158.344 179.743 158.187 180.301 158.146C180.859 158.106 181.419 158.183 181.945 158.373C183.228 158.922 184.032 160.328 184.032 162.421Z" fill="#263238"/>
<path d="M182.269 158.517L182.198 158.471C181.122 157.895 179.658 158 178.051 158.942C174.753 160.864 172.076 165.534 172.076 169.406C172.076 171.368 172.724 172.676 173.845 173.33C174.966 173.984 176.437 173.846 178.051 172.892C181.349 170.975 184.019 166.299 184.019 162.428C184.032 160.498 183.384 159.144 182.269 158.517ZM178.051 171.492C176.632 172.323 175.362 172.349 174.487 171.721C173.716 171.178 173.249 170.138 173.249 168.699C173.34 167.018 173.822 165.383 174.656 163.925C175.491 162.467 176.654 161.228 178.051 160.309C179.256 159.602 180.358 159.478 181.2 159.844C182.211 160.282 182.846 161.42 182.846 163.114C182.756 164.793 182.275 166.426 181.442 167.882C180.609 169.338 179.447 170.575 178.051 171.492Z" fill="#121212"/>
<path d="M172.783 164.376L187.687 155.691C189.417 154.678 183.799 148.759 179.619 148.36C177.318 148.079 174.984 148.302 172.776 149.014C172.776 149.014 175.958 153.128 175.414 155.462C174.869 157.797 172.783 164.376 172.783 164.376Z" fill="#121212"/>
<path d="M151.729 139.832C151.729 139.832 173.334 150.832 174.267 151.493C175.2 152.153 174.267 159.825 172.783 164.376C171.299 168.928 169.018 175.926 168.104 177.888C167.19 179.85 165.998 180.583 163.808 181.858L148.256 190.929L127.202 193.519L118.843 188.941L121.02 175.135C121.02 175.135 143.396 163.121 146.461 161.335C149.526 159.55 158.592 151.172 151.729 139.832Z" fill="#121212"/>
<path opacity="0.2" d="M151.729 139.832C151.729 139.832 173.334 150.832 174.267 151.493C175.2 152.153 174.267 159.825 172.783 164.376C171.299 168.928 169.018 175.926 168.104 177.888C167.19 179.85 165.998 180.583 163.808 181.858L148.256 190.929L127.202 193.519L118.843 188.941L121.02 175.135C121.02 175.135 143.396 163.121 146.461 161.335C149.526 159.55 158.592 151.172 151.729 139.832Z" fill="black"/>
<path d="M174.681 161.754C176.625 156.483 178.077 152.114 177.831 149.164C177.533 145.666 176.237 142.808 170.521 141.369C164.806 139.93 156.816 139.956 156.816 139.956L154.386 141.375C154.386 141.375 170.819 150.989 172.686 152.035C173.826 152.689 175.044 155.574 172.809 164.383L173.191 164.605C173.379 164.723 174.059 163.448 174.681 161.754Z" fill="#121212"/>
<path opacity="0.3" d="M174.681 161.754C176.625 156.483 178.077 152.114 177.831 149.164C177.533 145.666 176.237 142.808 170.521 141.369C164.806 139.93 156.816 139.956 156.816 139.956L154.386 141.375C154.386 141.375 170.819 150.989 172.686 152.035C173.826 152.689 175.044 155.574 172.809 164.383L173.191 164.605C173.379 164.723 174.059 163.448 174.681 161.754Z" fill="white"/>
<path d="M162.233 145.966L164.89 144.436C164.89 144.436 164.735 135.143 160.86 132.886C156.985 130.63 143.83 132.167 143.83 132.167L141.199 133.697L162.233 145.966Z" fill="#121212"/>
<path d="M153.615 135.012C152.351 135.751 152.351 136.941 153.615 137.674C154.323 138.038 155.107 138.227 155.902 138.227C156.697 138.227 157.481 138.038 158.19 137.674C159.447 136.941 159.447 135.744 158.19 135.012C157.48 134.651 156.697 134.463 155.902 134.463C155.108 134.463 154.324 134.651 153.615 135.012Z" fill="#F0F0F0"/>
<path d="M157.658 139.452C156.771 139.976 156.771 140.819 157.658 141.336C158.16 141.595 158.715 141.73 159.278 141.73C159.842 141.73 160.397 141.595 160.898 141.336C161.793 140.819 161.793 139.976 160.898 139.452C160.396 139.196 159.841 139.063 159.278 139.063C158.716 139.063 158.161 139.196 157.658 139.452Z" fill="#F0F0F0"/>
<path d="M147.478 133.828C146.584 134.345 146.584 135.188 147.478 135.711C147.981 135.967 148.536 136.101 149.098 136.101C149.661 136.101 150.216 135.967 150.718 135.711C151.613 135.188 151.613 134.345 150.718 133.828C150.217 133.569 149.662 133.434 149.098 133.434C148.535 133.434 147.98 133.569 147.478 133.828Z" fill="#F0F0F0"/>
<path d="M162.648 143.272C163.166 142.82 163.685 143.004 163.814 143.684C163.862 144.056 163.823 144.435 163.699 144.79C163.575 145.144 163.37 145.464 163.102 145.724C163.019 145.836 162.904 145.917 162.772 145.958C162.64 145.998 162.499 145.995 162.369 145.95C162.239 145.904 162.127 145.817 162.049 145.702C161.971 145.588 161.931 145.451 161.935 145.312C161.885 144.939 161.924 144.56 162.048 144.205C162.172 143.85 162.378 143.531 162.648 143.272Z" fill="#121212"/>
<path d="M168.694 146.162L163.406 143.082L162.253 145.901L167.547 148.981L168.694 146.162Z" fill="#121212"/>
<path d="M167.877 146.339C167.96 146.228 168.075 146.146 168.207 146.106C168.339 146.065 168.48 146.068 168.61 146.114C168.74 146.16 168.852 146.246 168.93 146.361C169.008 146.476 169.048 146.612 169.044 146.751C169.093 147.124 169.054 147.503 168.93 147.858C168.806 148.213 168.601 148.533 168.331 148.792C167.813 149.243 167.294 149.053 167.165 148.38C167.116 148.007 167.156 147.628 167.28 147.273C167.403 146.919 167.608 146.599 167.877 146.339Z" fill="#121212"/>
<path d="M167.877 146.339C167.96 146.228 168.075 146.146 168.207 146.106C168.339 146.065 168.48 146.068 168.61 146.114C168.74 146.16 168.852 146.246 168.93 146.361C169.008 146.476 169.048 146.612 169.044 146.751C169.093 147.124 169.054 147.503 168.93 147.858C168.806 148.213 168.601 148.533 168.331 148.792C167.813 149.243 167.294 149.053 167.165 148.38C167.116 148.007 167.156 147.628 167.28 147.273C167.403 146.919 167.608 146.599 167.877 146.339Z" fill="black"/>
<path d="M122.751 191.622C122.751 191.753 122.751 191.871 122.751 192.001C122.751 192.263 122.751 192.531 122.751 192.799C121.701 192.348 120.334 192.498 118.863 193.375C115.564 195.298 112.888 199.974 112.888 203.839C112.888 205.631 113.471 206.926 114.43 207.599C114.161 207.793 113.882 207.972 113.594 208.136L113.29 208.293L112.376 211.765L107.088 208.79C105.417 207.815 104.386 205.735 104.386 202.766C104.386 196.834 108.508 189.627 113.594 186.658C116.109 185.193 118.383 185.043 120.074 186.004L125.258 188.934L125.369 189L122.751 191.622Z" fill="#455A64"/>
<path d="M106.978 181.243L103.032 195.049L110.931 199.653L115.02 185.932L106.978 181.243Z" fill="#121212"/>
<path opacity="0.2" d="M106.978 181.243L103.032 195.049L110.931 199.653L115.02 185.932L106.978 181.243Z" fill="black"/>
<path d="M106.978 181.243C106.978 181.243 111.456 185.082 115.02 185.932C119.699 187.077 127.138 187.201 129.775 187.384C133.806 187.665 136.851 187.659 138.277 187.142C140.124 186.488 145.087 183.578 146.461 182.78C149.092 181.25 150.213 175.226 142.962 173.578C138.059 172.553 133.065 172.038 128.058 172.041L106.978 181.243Z" fill="#121212"/>
<path d="M151.632 179.477C151.407 180.046 151.254 180.642 151.178 181.25C150.97 181.881 150.921 182.556 151.036 183.212C151.53 184.036 152.307 184.648 153.22 184.932C153.877 185.079 154.557 185.089 155.218 184.959C155.88 184.83 156.507 184.564 157.062 184.18C158.404 183.369 159.414 182.388 161.32 181.838C162.681 181.547 163.964 180.96 165.078 180.118C166.134 179.261 167.547 176.894 165.525 176.345C163.503 175.795 159.11 177.731 155.105 177.908L151.632 179.477Z" fill="#37474F"/>
<path d="M151.632 176.953V179.974C151.755 180.314 151.968 180.613 152.248 180.838C152.528 181.063 152.864 181.205 153.22 181.25C153.545 181.298 153.877 181.262 154.185 181.145C154.671 180.958 155.091 180.632 155.395 180.206C155.699 179.781 155.873 179.275 155.896 178.751L156.012 176.953H151.632Z" fill="#FFA8A7"/>
<path d="M157.334 158.268C157.334 162.029 156.285 178.287 156.285 178.287C156.285 178.287 154.762 180.249 151.451 178.287L150.336 160.119L157.334 158.268Z" fill="#37474F"/>
<path d="M139.968 174.291L150.336 168.261C150.761 168.036 151.117 167.698 151.365 167.284C151.613 166.869 151.744 166.394 151.744 165.91C151.744 165.426 151.613 164.951 151.365 164.536C151.117 164.122 150.761 163.784 150.336 163.559L142.612 159.059C142.177 158.837 141.696 158.721 141.209 158.721C140.721 158.721 140.241 158.837 139.806 159.059L129.438 165.089C129.015 165.316 128.661 165.654 128.414 166.069C128.168 166.483 128.037 166.957 128.037 167.44C128.037 167.924 128.168 168.398 128.414 168.812C128.661 169.226 129.015 169.565 129.438 169.792L137.162 174.291C137.597 174.513 138.078 174.629 138.565 174.629C139.053 174.629 139.533 174.513 139.968 174.291Z" fill="#121212"/>
<path d="M139.968 174.291L150.336 168.261C150.761 168.036 151.117 167.698 151.365 167.284C151.613 166.869 151.744 166.394 151.744 165.91C151.744 165.426 151.613 164.951 151.365 164.536C151.117 164.122 150.761 163.784 150.336 163.559L142.612 159.059C142.177 158.837 141.696 158.721 141.209 158.721C140.721 158.721 140.241 158.837 139.806 159.059L129.438 165.089C129.015 165.316 128.661 165.654 128.414 166.069C128.168 166.483 128.037 166.957 128.037 167.44C128.037 167.924 128.168 168.398 128.414 168.812C128.661 169.226 129.015 169.565 129.438 169.792L137.162 174.291C137.597 174.513 138.078 174.629 138.565 174.629C139.053 174.629 139.533 174.513 139.968 174.291Z" fill="white"/>
<path d="M129.438 166.724L137.162 171.224C137.597 171.446 138.078 171.562 138.565 171.562C139.053 171.562 139.533 171.446 139.968 171.224L150.336 165.194C150.505 165.136 150.652 165.026 150.756 164.879C150.861 164.733 150.917 164.557 150.917 164.376C150.917 164.196 150.861 164.02 150.756 163.874C150.652 163.727 150.505 163.617 150.336 163.559L142.612 159.059C142.177 158.837 141.696 158.721 141.209 158.721C140.721 158.721 140.241 158.837 139.806 159.059L129.438 165.089C129.269 165.147 129.122 165.257 129.018 165.404C128.914 165.551 128.858 165.726 128.858 165.907C128.858 166.087 128.914 166.263 129.018 166.41C129.122 166.556 129.269 166.666 129.438 166.724Z" fill="#121212"/>
<path d="M135.756 126.699L134.441 132.173L128.79 132.52L130.008 124.934L135.756 126.699Z" fill="#FFA8A7"/>
<path d="M141.264 122.579C141.264 122.579 141.912 124.895 141.646 125.025C141.238 125.088 140.823 125.088 140.415 125.025L141.264 122.579Z" fill="#F28F8F"/>
<path d="M140.182 115.189C141.089 116.268 141.918 118.041 141.277 122.383C140.577 127.131 139.709 127.68 139.009 128.138C138.095 128.74 134.441 128.42 133.41 127.661C132.173 126.752 130.261 123.868 129.807 121.023C129.276 117.681 130.384 113.973 132.821 113.338C136.248 112.442 139.411 114.273 140.182 115.189Z" fill="#FFA8A7"/>
<path d="M129.438 126.471C130.313 127.386 132.108 127.635 133.235 127.844C134.363 128.053 137.83 128.282 138.853 125.79C139.877 123.299 139.177 121.507 140.435 120.905C141.692 120.303 142.949 119.911 143.279 119.597C143.61 119.283 143.616 115.182 140.24 113.057C136.864 110.931 131.693 110.441 128.291 114.751C125.712 118.08 126.768 123.658 129.438 126.471Z" fill="#455A64"/>
<path d="M132.84 127.877C133.715 127.955 136.482 127.517 137.318 126.366C138.154 125.215 138.491 123.155 138.614 122.076C138.625 121.651 138.779 121.242 139.052 120.918C139.324 120.593 139.697 120.372 140.111 120.29C140.946 120.022 142.793 119.107 142.793 119.107V118.596C143.389 118.559 143.986 118.559 144.582 118.596C144.971 118.668 144.757 119.25 143.772 119.754C142.787 120.258 140.085 121.232 139.67 121.566C139.255 121.899 139.061 123.305 138.73 124.803C138.4 126.301 137.376 128.537 132.84 127.877Z" fill="#37474F"/>
<path d="M140.616 134.07L143.856 132.193C144.167 131.245 143.668 130.767 142.787 130.826C141.906 130.885 142.178 130.022 141.64 129.78C140.934 129.453 140.532 129.636 140.214 129.486C139.897 129.335 139.761 128.956 139.346 128.91C137.493 128.733 136.229 131.402 136.229 131.402L140.616 134.07Z" fill="#F28F8F"/>
<path d="M118.623 158.085C118.623 158.085 132.937 150.924 135.432 149.766C137.927 148.609 141.841 146.928 143.921 146.928C144.734 146.996 145.495 147.357 146.065 147.946C146.635 148.534 146.976 149.311 147.025 150.132C147.052 151.394 146.98 152.656 146.811 153.906C142.878 155.208 138.859 156.229 134.784 156.96C128.829 158.007 118.623 158.085 118.623 158.085Z" fill="#37474F"/>
<path d="M120.178 153.945C120.178 156.914 119.899 160.001 121.124 162.173C122.349 164.344 128.984 169.367 135.231 168.314C139.314 167.62 151.431 161.989 151.431 161.989C151.431 161.989 157.308 159.812 157.334 158.262C157.373 155.979 157.218 152.761 152.092 152.899C147.42 153.023 133.637 155.927 133.637 155.927L120.178 153.945Z" fill="#455A64"/>
<path d="M124.176 130.421C126.392 128.086 127.889 127.89 128.952 128.177C131.394 128.883 133.759 129.838 136.009 131.029C136.009 131.029 135.153 139.387 139.203 141.794V154.821C139.203 154.821 139.08 156.234 137.318 157.64C135.763 158.876 132.244 160.125 128.045 159.772C123.055 159.354 120.178 153.945 120.178 153.945C120.178 153.945 120.049 143.291 120.755 139.06C121.584 134.122 123.412 131.232 124.176 130.421Z" fill="#455A64"/>
<path d="M139.203 142.428C139.203 142.428 136.754 140.466 136.009 137.916C136.009 137.916 136.3 141.918 139.203 143.945V142.428Z" fill="#37474F"/>
<path d="M161.877 148.576C163.04 148.624 164.185 148.266 165.117 147.562C165.117 147.562 166.244 145.351 167.631 145.541C167.631 145.541 167.877 144.599 167.307 144.292C166.737 143.985 166.491 144.07 166.257 143.743C166.024 143.416 165.998 142.807 164.961 142.807C164.534 142.807 164.592 142.5 163.555 142.376C162.518 142.251 161.495 144.665 160.736 144.665L161.877 148.576Z" fill="#FFA8A7"/>
<path d="M136.009 131.029C139.566 131.585 140.856 132.651 142.152 133.861C143.448 135.071 151.379 143.102 151.379 143.102L160.983 144.495C161.487 144.907 161.858 145.463 162.045 146.091C162.434 147.229 162.084 148.471 161.715 148.766C161.715 148.766 152.189 149.341 150.317 148.981C148.444 148.622 139.171 142.409 139.171 142.409C138.285 141.734 137.541 140.887 136.985 139.918C136.428 138.948 136.07 137.876 135.931 136.765C135.328 132.821 136.009 131.029 136.009 131.029Z" fill="#455A64"/>
<path d="M127.468 165.573L112.752 183.702C112.589 183.723 112.424 183.734 112.26 183.735C111.676 183.744 111.099 183.607 110.581 183.336L98.1526 176.09L97.3102 175.599C96.8501 175.331 96.4678 174.232 96.4678 173.147V170.092C96.4673 166.955 97.285 163.873 98.8388 161.155C100.393 158.438 102.628 156.181 105.319 154.612L120.159 145.966L135.95 155.168L127.468 165.573Z" fill="#121212"/>
<g opacity="0.1">
<path opacity="0.1" d="M127.468 165.573L112.752 183.702C112.589 183.723 112.424 183.734 112.26 183.735C111.676 183.744 111.099 183.607 110.581 183.336L98.1526 176.09L97.3102 175.599C96.8501 175.331 96.4678 174.232 96.4678 173.147V170.092C96.4673 166.955 97.285 163.873 98.8388 161.155C100.393 158.438 102.628 156.181 105.319 154.612L120.159 145.966L135.95 155.168L127.468 165.573Z" fill="black"/>
</g>
<path d="M122.394 171.826L135.931 155.175L120.139 145.973L105.306 154.612C103.388 155.733 101.695 157.209 100.317 158.961L122.394 171.826Z" fill="#121212"/>
<path d="M135.931 168.542C135.931 169.628 135.555 170.727 135.089 170.995L134.246 171.485L113.925 183.329C113.555 183.53 113.15 183.657 112.733 183.702C112.569 183.723 112.405 183.734 112.24 183.735V179.294C112.24 176.156 113.058 173.073 114.613 170.355C116.168 167.638 118.405 165.382 121.098 163.814L122.777 162.839L135.931 155.168V168.542Z" fill="#121212"/>
<g opacity="0.2">
<path opacity="0.2" d="M135.931 168.542C135.931 169.628 135.555 170.727 135.089 170.995L134.246 171.485L113.925 183.329C113.555 183.53 113.15 183.657 112.733 183.702C112.569 183.723 112.405 183.734 112.24 183.735V179.294C112.24 176.156 113.058 173.073 114.613 170.355C116.168 167.638 118.405 165.382 121.098 163.814L122.777 162.839L135.931 155.168V168.542Z" fill="black"/>
</g>
<path d="M140.292 190.975L148.243 190.948L159.622 184.317L148.476 192.446L140.085 192.564L140.292 190.975Z" fill="#E0E0E0"/>
<path d="M120.988 202.393C120.988 202.393 135.322 196.939 136.54 196.298C137.97 195.414 139.326 194.414 140.597 193.309C140.856 192.963 140.978 192.532 140.938 192.1C140.898 191.668 140.7 191.267 140.383 190.974C140.383 190.974 134.551 190.706 133.054 191.171C132.218 191.426 118.727 195.794 118.727 195.794L120.988 202.393Z" fill="#E0E0E0"/>
<path d="M120.347 196.298C119.161 195.271 117.968 195.696 117.677 197.24C117.565 198.091 117.655 198.958 117.937 199.768C118.22 200.578 118.688 201.31 119.303 201.903C120.489 202.93 121.681 202.511 121.973 200.961C122.084 200.11 121.994 199.244 121.712 198.434C121.429 197.623 120.962 196.892 120.347 196.298Z" fill="#455A64"/>
</svg>
